<svg version="1.1" viewBox="0.0 0.0 355.16010498687666 100.0" fill="none" stroke="none" stroke-linecap="square" stroke-miterlimit="10" xmlns:xlink="http://www.w3.org/1999/xlink" xmlns="http://www.w3.org/2000/svg"><clipPath id="p.0"><path d="m0 0l355.1601 0l0 100.0l-355.1601 0l0 -100.0z" clip-rule="nonzero"/></clipPath><g clip-path="url(#p.0)"><path fill="#000000" fill-opacity="0.0" d="m0 0l355.1601 0l0 100.0l-355.1601 0z" fill-rule="evenodd"/><path fill="#000000" fill-opacity="0.0" d="m0 0l364.8504 0l0 87.27559l-364.8504 0z" fill-rule="evenodd"/><path fill="#000000" d="m17.296875 20.373123q1.765625 0.40625 2.46875 0.984375q1.015625 0.828125 1.015625 2.15625q0 1.390625 -1.109375 2.296875q-1.375 1.109375 -4.0 1.109375l-6.28125 0l0 -0.34375q0.859375 0 1.15625 -0.15625q0.3125 -0.15625 0.4375 -0.40625q0.125 -0.265625 0.125 -1.265625l0 -8.015625q0 -1.0 -0.125 -1.25q-0.125 -0.265625 -0.4375 -0.421875q-0.3125 -0.15625 -1.15625 -0.15625l0 -0.34375l5.921875 0q2.125 0 3.0 0.390625q0.890625 0.375 1.390625 1.125q0.515625 0.75 0.515625 1.59375q0 0.890625 -0.65625 1.59375q-0.640625 0.703125 -2.265625 1.109375zm-3.3125 -0.25q1.296875 0 1.90625 -0.28125q0.609375 -0.296875 0.9375 -0.828125q0.328125 -0.53125 0.328125 -1.34375q0 -0.828125 -0.328125 -1.34375q-0.3125 -0.53125 -0.921875 -0.796875q-0.59375 -0.28125 -1.921875 -0.265625l0 4.859375zm0 0.71875l0 3.953125l-0.015625 0.453125q0 0.5 0.25 0.75q0.25 0.25 0.75 0.25q0.734375 0 1.34375 -0.328125q0.609375 -0.328125 0.9375 -0.9375q0.328125 -0.609375 0.328125 -1.375q0 -0.859375 -0.40625 -1.546875q-0.390625 -0.6875 -1.09375 -0.953125q-0.703125 -0.28125 -2.09375 -0.265625zm15.302948 1.515625l-4.671875 0q0.078125 1.6875 0.90625 2.671875q0.625 0.765625 1.5 0.765625q0.546875 0 0.984375 -0.296875q0.453125 -0.3125 0.96875 -1.109375l0.3125 0.203125q-0.6875 1.40625 -1.53125 2.0q-0.84375 0.578125 -1.9375 0.578125q-1.890625 0 -2.875 -1.453125q-0.78125 -1.171875 -0.78125 -2.921875q0 -2.125 1.15625 -3.375q1.15625 -1.265625 2.703125 -1.265625q1.28125 0 2.234375 1.0625q0.953125 1.046875 1.03125 3.140625zm-2.234375 -0.609375q0 -1.46875 -0.171875 -2.015625q-0.15625 -0.546875 -0.484375 -0.828125q-0.203125 -0.171875 -0.515625 -0.171875q-0.46875 0 -0.78125 0.46875q-0.53125 0.8125 -0.53125 2.21875l0 0.328125l2.484375 0zm5.343033 -7.46875q0.59375 0 1.0 0.421875q0.421875 0.40625 0.421875 0.984375q0 0.578125 -0.421875 1.0q-0.40625 0.40625 -1.0 0.40625q-0.578125 0 -0.984375 -0.40625q-0.40625 -0.421875 -0.40625 -1.0q0 -0.578125 0.40625 -0.984375q0.40625 -0.421875 0.984375 -0.421875zm1.28125 4.125l0 6.75q0 0.90625 0.203125 1.15625q0.21875 0.25 0.828125 0.28125l0 0.328125l-4.609375 0l0 -0.328125q0.578125 -0.015625 0.84375 -0.328125q0.1875 -0.203125 0.1875 -1.109375l0 -4.96875q0 -0.90625 -0.21875 -1.15625q-0.203125 -0.25 -0.8125 -0.296875l0 -0.328125l3.578125 0zm5.339554 0l0 1.09375q0.65625 -0.703125 1.25 -1.015625q0.609375 -0.328125 1.296875 -0.328125q0.828125 0 1.375 0.453125q0.546875 0.453125 0.734375 1.140625q0.140625 0.515625 0.140625 2.0l0 3.3125q0 0.984375 0.171875 1.234375q0.1875 0.234375 0.75 0.296875l0 0.328125l-4.3125 0l0 -0.328125q0.484375 -0.0625 0.703125 -0.40625q0.140625 -0.21875 0.140625 -1.125l0 -3.78125q0 -1.0625 -0.09375 -1.328125q-0.078125 -0.265625 -0.28125 -0.421875q-0.1875 -0.15625 -0.421875 -0.15625q-0.78125 0 -1.453125 1.125l0 4.5625q0 0.953125 0.171875 1.21875q0.1875 0.25 0.671875 0.3125l0 0.328125l-4.3125 0l0 -0.328125q0.53125 -0.046875 0.765625 -0.34375q0.15625 -0.203125 0.15625 -1.1875l0 -4.8125q0 -0.96875 -0.1875 -1.203125q-0.171875 -0.234375 -0.734375 -0.3125l0 -0.328125l3.46875 0zm12.360092 0.09375l2.875 0l0 1.0l-1.640625 0q0.453125 0.453125 0.625 0.8125q0.21875 0.5 0.21875 1.03125q0 0.90625 -0.515625 1.578125q-0.5 0.671875 -1.375 1.0625q-0.859375 0.375 -1.53125 0.375q-0.0625 0 -1.09375 -0.046875q-0.40625 0 -0.6875 0.265625q-0.28125 0.265625 -0.28125 0.640625q0 0.328125 0.25 0.546875q0.25 0.203125 0.8125 0.203125l1.578125 -0.015625q1.90625 0 2.640625 0.40625q1.015625 0.59375 1.015625 1.796875q0 0.78125 -0.46875 1.40625q-0.46875 0.640625 -1.25 0.9375q-1.171875 0.453125 -2.703125 0.453125q-1.140625 0 -2.09375 -0.234375q-0.953125 -0.21875 -1.359375 -0.625q-0.40625 -0.390625 -0.40625 -0.828125q0 -0.40625 0.3125 -0.75q0.3125 -0.328125 1.171875 -0.5625q-1.1875 -0.578125 -1.1875 -1.609375q0 -0.640625 0.484375 -1.21875q0.484375 -0.59375 1.53125 -1.03125q-1.21875 -0.453125 -1.765625 -1.171875q-0.546875 -0.734375 -0.546875 -1.6875q0 -1.25 1.015625 -2.15625q1.015625 -0.921875 2.625 -0.921875q0.84375 0 1.75 0.34375zm-1.578125 0.21875q-0.53125 0 -0.890625 0.53125q-0.359375 0.53125 -0.359375 2.203125q0 1.359375 0.359375 1.875q0.359375 0.5 0.84375 0.5q0.546875 0 0.90625 -0.5q0.375 -0.5 0.375 -1.953125q0 -1.625 -0.40625 -2.21875q-0.296875 -0.4375 -0.828125 -0.4375zm-0.53125 9.453125q-0.9375 0 -1.234375 0.15625q-0.515625 0.28125 -0.515625 0.765625q0 0.46875 0.53125 0.84375q0.546875 0.375 2.03125 0.375q1.265625 0 1.984375 -0.34375q0.71875 -0.328125 0.71875 -0.9375q0 -0.21875 -0.125 -0.375q-0.25 -0.28125 -0.75 -0.390625q-0.5 -0.09375 -2.640625 -0.09375zm13.9296875 -2.109375l0 3.171875q0 0.640625 0.109375 0.875q0.109375 0.25 0.328125 0.359375q0.21875 0.109375 0.84375 0.109375l0 0.328125l-4.84375 0l0 -0.328125q0.5625 -0.015625 0.828125 -0.328125q0.1875 -0.203125 0.1875 -1.078125l0 -8.984375q0 -0.90625 -0.21875 -1.15625q-0.203125 -0.25 -0.796875 -0.296875l0 -0.328125l3.5625 0l0 1.125q0.453125 -0.65625 0.921875 -0.953125q0.65625 -0.421875 1.4375 -0.421875q0.9375 0 1.703125 0.59375q0.78125 0.578125 1.171875 1.625q0.40625 1.046875 0.40625 2.25q0 1.296875 -0.421875 2.375q-0.40625 1.0625 -1.203125 1.625q-0.78125 0.546875 -1.75 0.546875q-0.6875 0 -1.3125 -0.296875q-0.453125 -0.25 -0.953125 -0.8125zm0 -0.921875q0.78125 1.109375 1.6875 1.109375q0.484375 0 0.796875 -0.515625q0.484375 -0.765625 0.484375 -2.921875q0 -2.203125 -0.515625 -3.015625q-0.359375 -0.53125 -0.9375 -0.53125q-0.921875 0 -1.515625 1.328125l0 4.546875zm11.094467 -6.984375q1.109375 0 2.0625 0.578125q0.96875 0.5625 1.453125 1.625q0.5 1.046875 0.5 2.3125q0 1.8125 -0.90625 3.03125q-1.125 1.46875 -3.078125 1.46875q-1.921875 0 -2.96875 -1.34375q-1.03125 -1.34375 -1.03125 -3.125q0 -1.828125 1.0625 -3.1875q1.0625 -1.359375 2.90625 -1.359375zm0.046875 0.640625q-0.46875 0 -0.8125 0.359375q-0.328125 0.34375 -0.4375 1.375q-0.09375 1.03125 -0.09375 2.875q0 0.96875 0.125 1.828125q0.109375 0.640625 0.4375 0.984375q0.328125 0.328125 0.734375 0.328125q0.421875 0 0.6875 -0.21875q0.359375 -0.3125 0.46875 -0.875q0.1875 -0.859375 0.1875 -3.5q0 -1.546875 -0.171875 -2.125q-0.171875 -0.578125 -0.515625 -0.84375q-0.234375 -0.1875 -0.609375 -0.1875zm10.65625 -0.625l0.140625 2.90625l-0.3125 0q-0.5625 -1.296875 -1.15625 -1.765625q-0.59375 -0.484375 -1.1875 -0.484375q-0.375 0 -0.640625 0.25q-0.265625 0.25 -0.265625 0.578125q0 0.25 0.1875 0.484375q0.28125 0.375 1.625 1.28125q1.34375 0.90625 1.765625 1.546875q0.421875 0.625 0.421875 1.40625q0 0.703125 -0.359375 1.390625q-0.34375 0.6875 -1.0 1.046875q-0.640625 0.359375 -1.421875 0.359375q-0.609375 0 -1.640625 -0.375q-0.265625 -0.109375 -0.375 -0.109375q-0.296875 0 -0.5 0.46875l-0.296875 0l-0.140625 -3.0625l0.3125 0q0.40625 1.203125 1.109375 1.8125q0.71875 0.59375 1.359375 0.59375q0.4375 0 0.71875 -0.265625q0.28125 -0.28125 0.28125 -0.65625q0 -0.4375 -0.28125 -0.75q-0.265625 -0.328125 -1.21875 -0.96875q-1.390625 -0.96875 -1.796875 -1.484375q-0.609375 -0.75 -0.609375 -1.640625q0 -0.984375 0.671875 -1.78125q0.6875 -0.796875 1.96875 -0.796875q0.703125 0 1.34375 0.328125q0.25 0.140625 0.40625 0.140625q0.15625 0 0.25 -0.0625q0.109375 -0.078125 0.328125 -0.390625l0.3125 0zm3.9165192 -3.890625q0.59375 0 1.0 0.421875q0.421875 0.40625 0.421875 0.984375q0 0.578125 -0.421875 1.0q-0.40625 0.40625 -1.0 0.40625q-0.578125 0 -0.984375 -0.40625q-0.40625 -0.421875 -0.40625 -1.0q0 -0.578125 0.40625 -0.984375q0.40625 -0.421875 0.984375 -0.421875zm1.28125 4.125l0 6.75q0 0.90625 0.203125 1.15625q0.21875 0.25 0.828125 0.28125l0 0.328125l-4.609375 0l0 -0.328125q0.578125 -0.015625 0.84375 -0.328125q0.1875 -0.203125 0.1875 -1.109375l0 -4.96875q0 -0.90625 -0.21875 -1.15625q-0.203125 -0.25 -0.8125 -0.296875l0 -0.328125l3.578125 0zm5.245804 -3.125l0 3.125l2.015625 0l0 0.90625l-2.015625 0l0 5.25q0 0.734375 0.0625 0.953125q0.0625 0.21875 0.234375 0.359375q0.171875 0.125 0.328125 0.125q0.59375 0 1.109375 -0.90625l0.28125 0.203125q-0.734375 1.75 -2.390625 1.75q-0.8125 0 -1.375 -0.453125q-0.5625 -0.453125 -0.71875 -1.015625q-0.09375 -0.3125 -0.09375 -1.671875l0 -4.59375l-1.109375 0l0 -0.328125q1.15625 -0.8125 1.953125 -1.703125q0.8125 -0.890625 1.40625 -2.0l0.3125 0zm4.868927 -1.0q0.59375 0 1.0 0.421875q0.421875 0.40625 0.421875 0.984375q0 0.578125 -0.421875 1.0q-0.40625 0.40625 -1.0 0.40625q-0.578125 0 -0.984375 -0.40625q-0.40625 -0.421875 -0.40625 -1.0q0 -0.578125 0.40625 -0.984375q0.40625 -0.421875 0.984375 -0.421875zm1.28125 4.125l0 6.75q0 0.90625 0.203125 1.15625q0.21875 0.25 0.828125 0.28125l0 0.328125l-4.609375 0l0 -0.328125q0.578125 -0.015625 0.84375 -0.328125q0.1875 -0.203125 0.1875 -1.109375l0 -4.96875q0 -0.90625 -0.21875 -1.15625q-0.203125 -0.25 -0.8125 -0.296875l0 -0.328125l3.578125 0zm5.698929 8.765625l-2.859375 -6.59375q-0.53125 -1.203125 -0.8125 -1.515625q-0.21875 -0.234375 -0.625 -0.328125l0 -0.328125l4.53125 0l0 0.328125q-0.4375 0 -0.578125 0.15625q-0.21875 0.203125 -0.21875 0.484375q0 0.328125 0.390625 1.265625l1.40625 3.1875l1.125 -2.75q0.484375 -1.1875 0.484375 -1.6875q0 -0.28125 -0.21875 -0.453125q-0.203125 -0.171875 -0.71875 -0.203125l0 -0.328125l2.796875 0l0 0.328125q-0.40625 0.0625 -0.671875 0.3125q-0.25 0.234375 -0.75 1.4375l-2.84375 6.6875l-0.4375 0zm12.703125 -4.8125l-4.671875 0q0.078125 1.6875 0.90625 2.671875q0.625 0.765625 1.5 0.765625q0.546875 0 0.984375 -0.296875q0.453125 -0.3125 0.96875 -1.109375l0.3125 0.203125q-0.6875 1.40625 -1.53125 2.0q-0.84375 0.578125 -1.9375 0.578125q-1.890625 0 -2.875 -1.453125q-0.78125 -1.171875 -0.78125 -2.921875q0 -2.125 1.15625 -3.375q1.15625 -1.265625 2.703125 -1.265625q1.28125 0 2.234375 1.0625q0.953125 1.046875 1.03125 3.140625zm-2.234375 -0.609375q0 -1.46875 -0.171875 -2.015625q-0.15625 -0.546875 -0.484375 -0.828125q-0.203125 -0.171875 -0.515625 -0.171875q-0.46875 0 -0.78125 0.46875q-0.53125 0.8125 -0.53125 2.21875l0 0.328125l2.484375 0zm16.24147 -7.1875l0 9.8125q0 0.984375 0.0625 1.171875q0.0625 0.296875 0.265625 0.453125q0.21875 0.140625 0.71875 0.171875l0 0.296875l-3.59375 0.703125l0 -1.34375q-0.640625 0.78125 -1.15625 1.0625q-0.5 0.28125 -1.140625 0.28125q-1.625 0 -2.578125 -1.453125q-0.765625 -1.1875 -0.765625 -2.90625q0 -1.375 0.46875 -2.453125q0.484375 -1.09375 1.296875 -1.640625q0.828125 -0.5625 1.78125 -0.5625q0.609375 0 1.078125 0.234375q0.484375 0.234375 1.015625 0.828125l0 -2.578125q0 -0.96875 -0.078125 -1.171875q-0.109375 -0.265625 -0.328125 -0.390625q-0.21875 -0.125 -0.828125 -0.125l0 -0.390625l3.78125 0zm-2.546875 5.78125q-0.671875 -1.296875 -1.65625 -1.296875q-0.328125 0 -0.546875 0.1875q-0.34375 0.28125 -0.5625 1.0q-0.203125 0.703125 -0.203125 2.171875q0 1.609375 0.234375 2.390625q0.234375 0.765625 0.640625 1.109375q0.21875 0.171875 0.578125 0.171875q0.796875 0 1.515625 -1.25l0 -4.484375zm8.656967 -2.1875q1.109375 0 2.0625 0.578125q0.96875 0.5625 1.453125 1.625q0.5 1.046875 0.5 2.3125q0 1.8125 -0.90625 3.03125q-1.125 1.46875 -3.078125 1.46875q-1.921875 0 -2.96875 -1.34375q-1.03125 -1.34375 -1.03125 -3.125q0 -1.828125 1.0625 -3.1875q1.0625 -1.359375 2.90625 -1.359375zm0.046875 0.640625q-0.46875 0 -0.8125 0.359375q-0.328125 0.34375 -0.4375 1.375q-0.09375 1.03125 -0.09375 2.875q0 0.96875 0.125 1.828125q0.109375 0.640625 0.4375 0.984375q0.328125 0.328125 0.734375 0.328125q0.421875 0 0.6875 -0.21875q0.359375 -0.3125 0.46875 -0.875q0.1875 -0.859375 0.1875 -3.5q0 -1.546875 -0.171875 -2.125q-0.171875 -0.578125 -0.515625 -0.84375q-0.234375 -0.1875 -0.609375 -0.1875zm12.484375 3.5625l-4.671875 0q0.078125 1.6875 0.90625 2.671875q0.625 0.765625 1.5 0.765625q0.546875 0 0.984375 -0.296875q0.453125 -0.3125 0.96875 -1.109375l0.3125 0.203125q-0.6875 1.40625 -1.53125 2.0q-0.84375 0.578125 -1.9375 0.578125q-1.890625 0 -2.875 -1.453125q-0.78125 -1.171875 -0.78125 -2.921875q0 -2.125 1.15625 -3.375q1.15625 -1.265625 2.703125 -1.265625q1.28125 0 2.234375 1.0625q0.953125 1.046875 1.03125 3.140625zm-2.234375 -0.609375q0 -1.46875 -0.171875 -2.015625q-0.15625 -0.546875 -0.484375 -0.828125q-0.203125 -0.171875 -0.515625 -0.171875q-0.46875 0 -0.78125 0.46875q-0.53125 0.8125 -0.53125 2.21875l0 0.328125l2.484375 0zm8.686783 -3.578125l0.140625 2.90625l-0.3125 0q-0.5625 -1.296875 -1.15625 -1.765625q-0.59375 -0.484375 -1.1875 -0.484375q-0.375 0 -0.640625 0.25q-0.265625 0.25 -0.265625 0.578125q0 0.25 0.1875 0.484375q0.28125 0.375 1.625 1.28125q1.34375 0.90625 1.765625 1.546875q0.421875 0.625 0.421875 1.40625q0 0.703125 -0.359375 1.390625q-0.34375 0.6875 -1.0 1.046875q-0.640625 0.359375 -1.421875 0.359375q-0.609375 0 -1.640625 -0.375q-0.265625 -0.109375 -0.375 -0.109375q-0.296875 0 -0.5 0.46875l-0.296875 0l-0.140625 -3.0625l0.3125 0q0.40625 1.203125 1.109375 1.8125q0.71875 0.59375 1.359375 0.59375q0.4375 0 0.71875 -0.265625q0.28125 -0.28125 0.28125 -0.65625q0 -0.4375 -0.28125 -0.75q-0.265625 -0.328125 -1.21875 -0.96875q-1.390625 -0.96875 -1.796875 -1.484375q-0.609375 -0.75 -0.609375 -1.640625q0 -0.984375 0.671875 -1.78125q0.6875 -0.796875 1.96875 -0.796875q0.703125 0 1.34375 0.328125q0.25 0.140625 0.40625 0.140625q0.15625 0 0.25 -0.0625q0.109375 -0.078125 0.328125 -0.390625l0.3125 0zm5.354019 0.234375l0 1.09375q0.65625 -0.703125 1.25 -1.015625q0.609375 -0.328125 1.296875 -0.328125q0.828125 0 1.375 0.453125q0.546875 0.453125 0.734375 1.140625q0.140625 0.515625 0.140625 2.0l0 3.3125q0 0.984375 0.171875 1.234375q0.1875 0.234375 0.75 0.296875l0 0.328125l-4.3125 0l0 -0.328125q0.484375 -0.0625 0.703125 -0.40625q0.140625 -0.21875 0.140625 -1.125l0 -3.78125q0 -1.0625 -0.09375 -1.328125q-0.078125 -0.265625 -0.28125 -0.421875q-0.1875 -0.15625 -0.421875 -0.15625q-0.78125 0 -1.453125 1.125l0 4.5625q0 0.953125 0.171875 1.21875q0.1875 0.25 0.671875 0.3125l0 0.328125l-4.3125 0l0 -0.328125q0.53125 -0.046875 0.765625 -0.34375q0.15625 -0.203125 0.15625 -1.1875l0 -4.8125q0 -0.96875 -0.1875 -1.203125q-0.171875 -0.234375 -0.734375 -0.3125l0 -0.328125l3.46875 0zm7.985092 1.953125l0 -0.40625q1.046875 -0.453125 1.515625 -1.171875q0.484375 -0.734375 0.484375 -1.5q0 -0.140625 -0.0625 -0.21875q-0.0625 -0.078125 -0.125 -0.078125q-0.046875 0 -0.15625 0.0625q-0.265625 0.15625 -0.65625 0.15625q-0.546875 0 -0.9375 -0.421875q-0.390625 -0.421875 -0.390625 -0.984375q0 -0.59375 0.453125 -1.046875q0.453125 -0.46875 1.09375 -0.46875q0.78125 0 1.34375 0.609375q0.5625 0.609375 0.5625 1.671875q0 1.296875 -0.796875 2.3125q-0.78125 1.0 -2.328125 1.484375zm8.509552 -5.078125l0 3.125l2.015625 0l0 0.90625l-2.015625 0l0 5.25q0 0.734375 0.0625 0.953125q0.0625 0.21875 0.234375 0.359375q0.171875 0.125 0.328125 0.125q0.59375 0 1.109375 -0.90625l0.28125 0.203125q-0.734375 1.75 -2.390625 1.75q-0.8125 0 -1.375 -0.453125q-0.5625 -0.453125 -0.71875 -1.015625q-0.09375 -0.3125 -0.09375 -1.671875l0 -4.59375l-1.109375 0l0 -0.328125q1.15625 -0.8125 1.953125 -1.703125q0.8125 -0.890625 1.40625 -2.0l0.3125 0zm11.0173645 3.125l0 1.125q0.703125 -0.765625 1.296875 -1.0625q0.609375 -0.3125 1.3125 -0.3125q0.828125 0 1.375 0.390625q0.5625 0.375 0.859375 1.15625q0.734375 -0.828125 1.390625 -1.1875q0.671875 -0.359375 1.40625 -0.359375q0.890625 0 1.40625 0.40625q0.53125 0.390625 0.734375 1.015625q0.203125 0.625 0.203125 2.0l0 3.484375q0 0.984375 0.171875 1.21875q0.1875 0.234375 0.75 0.3125l0 0.328125l-4.40625 0l0 -0.328125q0.515625 -0.046875 0.765625 -0.40625q0.171875 -0.234375 0.171875 -1.125l0 -3.65625q0 -1.140625 -0.09375 -1.453125q-0.09375 -0.3125 -0.296875 -0.453125q-0.1875 -0.15625 -0.453125 -0.15625q-0.390625 0 -0.796875 0.296875q-0.390625 0.28125 -0.8125 0.84375l0 4.578125q0 0.921875 0.15625 1.15625q0.21875 0.34375 0.8125 0.375l0 0.328125l-4.421875 0l0 -0.328125q0.359375 -0.015625 0.5625 -0.171875q0.203125 -0.171875 0.265625 -0.390625q0.078125 -0.21875 0.078125 -0.96875l0 -3.65625q0 -1.15625 -0.09375 -1.453125q-0.09375 -0.296875 -0.3125 -0.453125q-0.203125 -0.171875 -0.453125 -0.171875q-0.359375 0 -0.65625 0.203125q-0.4375 0.28125 -0.921875 0.953125l0 4.578125q0 0.90625 0.171875 1.203125q0.1875 0.28125 0.75 0.328125l0 0.328125l-4.390625 0l0 -0.328125q0.546875 -0.046875 0.765625 -0.34375q0.15625 -0.203125 0.15625 -1.1875l0 -4.8125q0 -0.96875 -0.1875 -1.203125q-0.171875 -0.234375 -0.734375 -0.3125l0 -0.328125l3.46875 0zm19.228302 3.953125l-4.671875 0q0.078125 1.6875 0.90625 2.671875q0.625 0.765625 1.5 0.765625q0.546875 0 0.984375 -0.296875q0.453125 -0.3125 0.96875 -1.109375l0.3125 0.203125q-0.6875 1.40625 -1.53125 2.0q-0.84375 0.578125 -1.9375 0.578125q-1.890625 0 -2.875 -1.453125q-0.78125 -1.171875 -0.78125 -2.921875q0 -2.125 1.15625 -3.375q1.15625 -1.265625 2.703125 -1.265625q1.28125 0 2.234375 1.0625q0.953125 1.046875 1.03125 3.140625zm-2.234375 -0.609375q0 -1.46875 -0.171875 -2.015625q-0.15625 -0.546875 -0.484375 -0.828125q-0.203125 -0.171875 -0.515625 -0.171875q-0.46875 0 -0.78125 0.46875q-0.53125 0.8125 -0.53125 2.21875l0 0.328125l2.484375 0zm7.999283 3.921875q-1.5625 1.375 -2.796875 1.375q-0.734375 0 -1.21875 -0.484375q-0.46875 -0.484375 -0.46875 -1.203125q0 -0.96875 0.828125 -1.75q0.84375 -0.78125 3.65625 -2.078125l0 -0.84375q0 -0.96875 -0.109375 -1.21875q-0.09375 -0.25 -0.390625 -0.4375q-0.296875 -0.1875 -0.65625 -0.1875q-0.59375 0 -0.96875 0.265625q-0.25 0.15625 -0.25 0.375q0 0.203125 0.265625 0.484375q0.34375 0.390625 0.34375 0.75q0 0.453125 -0.34375 0.765625q-0.328125 0.3125 -0.859375 0.3125q-0.578125 0 -0.96875 -0.34375q-0.375 -0.359375 -0.375 -0.8125q0 -0.65625 0.515625 -1.25q0.515625 -0.609375 1.4375 -0.921875q0.9375 -0.3125 1.9375 -0.3125q1.21875 0 1.921875 0.515625q0.703125 0.5 0.921875 1.109375q0.125 0.375 0.125 1.75l0 3.3125q0 0.578125 0.046875 0.734375q0.046875 0.15625 0.125 0.234375q0.09375 0.0625 0.21875 0.0625q0.234375 0 0.484375 -0.34375l0.265625 0.21875q-0.453125 0.6875 -0.9375 1.0q-0.484375 0.296875 -1.109375 0.296875q-0.734375 0 -1.140625 -0.34375q-0.40625 -0.34375 -0.5 -1.03125zm0 -0.671875l0 -2.84375q-1.09375 0.640625 -1.640625 1.375q-0.359375 0.5 -0.359375 1.0q0 0.40625 0.3125 0.734375q0.21875 0.25 0.625 0.25q0.46875 0 1.0625 -0.515625zm8.109375 -6.59375l0 1.09375q0.65625 -0.703125 1.25 -1.015625q0.609375 -0.328125 1.296875 -0.328125q0.828125 0 1.375 0.453125q0.546875 0.453125 0.734375 1.140625q0.140625 0.515625 0.140625 2.0l0 3.3125q0 0.984375 0.171875 1.234375q0.1875 0.234375 0.75 0.296875l0 0.328125l-4.3125 0l0 -0.328125q0.484375 -0.0625 0.703125 -0.40625q0.140625 -0.21875 0.140625 -1.125l0 -3.78125q0 -1.0625 -0.09375 -1.328125q-0.078125 -0.265625 -0.28125 -0.421875q-0.1875 -0.15625 -0.421875 -0.15625q-0.78125 0 -1.453125 1.125l0 4.5625q0 0.953125 0.171875 1.21875q0.1875 0.25 0.671875 0.3125l0 0.328125l-4.3125 0l0 -0.328125q0.53125 -0.046875 0.765625 -0.34375q0.15625 -0.203125 0.15625 -1.1875l0 -4.8125q0 -0.96875 -0.1875 -1.203125q-0.171875 -0.234375 -0.734375 -0.3125l0 -0.328125l3.46875 0zm15.461655 8.859375l-2.75 -6.3125q-0.609375 -1.421875 -0.90625 -1.75q-0.296875 -0.328125 -0.71875 -0.46875l0 -0.328125l4.53125 0l0 0.328125q-0.453125 0.03125 -0.640625 0.1875q-0.171875 0.140625 -0.171875 0.359375q0 0.359375 0.453125 1.375l1.453125 3.328125l1.0 -2.578125q0.53125 -1.375 0.53125 -1.90625q0 -0.34375 -0.21875 -0.53125q-0.21875 -0.203125 -0.796875 -0.234375l0 -0.328125l2.859375 0l0 0.328125q-0.421875 0.046875 -0.6875 0.328125q-0.265625 0.28125 -0.875 1.890625l-2.4375 6.3125q-0.921875 2.375 -1.359375 2.921875q-0.640625 0.765625 -1.578125 0.765625q-0.765625 0 -1.234375 -0.4375q-0.46875 -0.4375 -0.46875 -1.046875q0 -0.53125 0.328125 -0.875q0.328125 -0.34375 0.796875 -0.34375q0.453125 0 0.734375 0.28125q0.28125 0.296875 0.28125 0.90625q0.015625 0.359375 0.078125 0.453125q0.078125 0.09375 0.21875 0.09375q0.21875 0 0.46875 -0.25q0.359375 -0.390625 0.84375 -1.75l0.265625 -0.71875zm9.4375 -9.109375q1.109375 0 2.0625 0.578125q0.96875 0.5625 1.453125 1.625q0.5 1.046875 0.5 2.3125q0 1.8125 -0.90625 3.03125q-1.125 1.46875 -3.078125 1.46875q-1.921875 0 -2.96875 -1.34375q-1.03125 -1.34375 -1.03125 -3.125q0 -1.828125 1.0625 -3.1875q1.0625 -1.359375 2.90625 -1.359375zm0.046875 0.640625q-0.46875 0 -0.8125 0.359375q-0.328125 0.34375 -0.4375 1.375q-0.09375 1.03125 -0.09375 2.875q0 0.96875 0.125 1.828125q0.109375 0.640625 0.4375 0.984375q0.328125 0.328125 0.734375 0.328125q0.421875 0 0.6875 -0.21875q0.359375 -0.3125 0.46875 -0.875q0.1875 -0.859375 0.1875 -3.5q0 -1.546875 -0.171875 -2.125q-0.171875 -0.578125 -0.515625 -0.84375q-0.234375 -0.1875 -0.609375 -0.1875zm13.5 -0.390625l0 6.671875q0 0.96875 0.171875 1.21875q0.1875 0.234375 0.75 0.296875l0 0.328125l-3.484375 0l0 -1.140625q-0.609375 0.734375 -1.21875 1.0625q-0.609375 0.328125 -1.359375 0.328125q-0.71875 0 -1.28125 -0.4375q-0.5625 -0.4375 -0.75 -1.03125q-0.1875 -0.59375 -0.1875 -2.0625l0 -3.390625q0 -0.96875 -0.1875 -1.203125q-0.171875 -0.234375 -0.734375 -0.3125l0 -0.328125l3.46875 0l0 5.8125q0 0.921875 0.078125 1.1875q0.09375 0.265625 0.28125 0.40625q0.1875 0.125 0.4375 0.125q0.328125 0 0.578125 -0.171875q0.375 -0.234375 0.875 -0.953125l0 -4.5625q0 -0.96875 -0.171875 -1.203125q-0.171875 -0.234375 -0.734375 -0.3125l0 -0.328125l3.46875 0zm15.258514 8.765625l-2.34375 -6.25l-2.28125 6.25l-0.46875 0l-2.265625 -6.171875q-0.515625 -1.40625 -0.875 -1.84375q-0.21875 -0.28125 -0.6875 -0.421875l0 -0.328125l4.296875 0l0 0.328125q-0.4375 0 -0.609375 0.140625q-0.15625 0.125 -0.15625 0.28125q0 0.15625 0.296875 0.9375l1.25 3.328125l1.203125 -3.328125l-0.09375 -0.21875q-0.28125 -0.6875 -0.484375 -0.875q-0.203125 -0.1875 -0.625 -0.265625l0 -0.328125l4.359375 0l0 0.328125q-0.515625 0.03125 -0.65625 0.15625q-0.125 0.109375 -0.125 0.3125q0 0.203125 0.265625 0.890625l1.203125 3.328125l1.09375 -3.0625q0.234375 -0.65625 0.234375 -0.890625q0 -0.359375 -0.171875 -0.515625q-0.171875 -0.171875 -0.671875 -0.21875l0 -0.328125l2.515625 0l0 0.328125q-0.421875 0.0625 -0.671875 0.3125q-0.234375 0.234375 -0.625 1.359375l-2.390625 6.765625l-0.515625 0zm7.0667114 -12.890625q0.59375 0 1.0 0.421875q0.421875 0.40625 0.421875 0.984375q0 0.578125 -0.421875 1.0q-0.40625 0.40625 -1.0 0.40625q-0.578125 0 -0.984375 -0.40625q-0.40625 -0.421875 -0.40625 -1.0q0 -0.578125 0.40625 -0.984375q0.40625 -0.421875 0.984375 -0.421875zm1.28125 4.125l0 6.75q0 0.90625 0.203125 1.15625q0.21875 0.25 0.828125 0.28125l0 0.328125l-4.609375 0l0 -0.328125q0.578125 -0.015625 0.84375 -0.328125q0.1875 -0.203125 0.1875 -1.109375l0 -4.96875q0 -0.90625 -0.21875 -1.15625q-0.203125 -0.25 -0.8125 -0.296875l0 -0.328125l3.578125 0zm5.1989136 -3.84375l0 10.59375q0 0.90625 0.203125 1.15625q0.203125 0.25 0.8125 0.28125l0 0.328125l-4.59375 0l0 -0.328125q0.5625 -0.015625 0.84375 -0.328125q0.171875 -0.203125 0.171875 -1.109375l0 -8.8125q0 -0.90625 -0.203125 -1.15625q-0.203125 -0.25 -0.8125 -0.28125l0 -0.34375l3.578125 0zm5.1832886 0l0 10.59375q0 0.90625 0.203125 1.15625q0.203125 0.25 0.8125 0.28125l0 0.328125l-4.59375 0l0 -0.328125q0.5625 -0.015625 0.84375 -0.328125q0.171875 -0.203125 0.171875 -1.109375l0 -8.8125q0 -0.90625 -0.203125 -1.15625q-0.203125 -0.25 -0.8125 -0.28125l0 -0.34375l3.578125 0zm9.800476 0l0 4.703125q1.078125 -1.109375 2.359375 -1.109375q0.875 0 1.640625 0.515625q0.78125 0.5 1.21875 1.453125q0.4375 0.953125 0.4375 2.1875q0 1.390625 -0.5625 2.53125q-0.546875 1.140625 -1.484375 1.734375q-0.921875 0.59375 -2.125 0.59375q-0.6875 0 -1.234375 -0.21875q-0.53125 -0.21875 -1.046875 -0.703125l-1.40625 0.921875l-0.3125 0l0 -10.828125q0 -0.75 -0.0625 -0.921875q-0.09375 -0.25 -0.296875 -0.375q-0.1875 -0.125 -0.65625 -0.140625l0 -0.34375l3.53125 0zm0 5.515625l0 3.78125q0 1.15625 0.0625 1.484375q0.09375 0.53125 0.4375 0.875q0.34375 0.328125 0.875 0.328125q0.46875 0 0.796875 -0.265625q0.34375 -0.265625 0.5625 -1.046875q0.21875 -0.796875 0.21875 -2.828125q0 -1.96875 -0.484375 -2.6875q-0.359375 -0.53125 -0.96875 -0.53125q-0.78125 0 -1.5 0.890625zm14.297607 2.28125l-4.671875 0q0.078125 1.6875 0.90625 2.671875q0.625 0.765625 1.5 0.765625q0.546875 0 0.984375 -0.296875q0.453125 -0.3125 0.96875 -1.109375l0.3125 0.203125q-0.6875 1.40625 -1.53125 2.0q-0.84375 0.578125 -1.9375 0.578125q-1.890625 0 -2.875 -1.453125q-0.78125 -1.171875 -0.78125 -2.921875q0 -2.125 1.15625 -3.375q1.15625 -1.265625 2.703125 -1.265625q1.28125 0 2.234375 1.0625q0.953125 1.046875 1.03125 3.140625zm-2.234375 -0.609375q0 -1.46875 -0.171875 -2.015625q-0.15625 -0.546875 -0.484375 -0.828125q-0.203125 -0.171875 -0.515625 -0.171875q-0.46875 0 -0.78125 0.46875q-0.53125 0.8125 -0.53125 2.21875l0 0.328125l2.484375 0z" fill-rule="nonzero"/><path fill="#000000" d="m13.640625 40.55437q1.109375 0 2.0625 0.578125q0.96875 0.5625 1.453125 1.625q0.5 1.046875 0.5 2.3125q0 1.8125 -0.90625 3.03125q-1.125 1.46875 -3.078125 1.46875q-1.921875 0 -2.96875 -1.34375q-1.03125 -1.34375 -1.03125 -3.125q0 -1.828125 1.0625 -3.1875q1.0625 -1.359375 2.90625 -1.359375zm0.046875 0.640625q-0.46875 0 -0.8125 0.359375q-0.328125 0.34375 -0.4375 1.375q-0.09375 1.03125 -0.09375 2.875q0 0.96875 0.125 1.828125q0.109375 0.640625 0.4375 0.984375q0.328125 0.328125 0.734375 0.328125q0.421875 0 0.6875 -0.21875q0.359375 -0.3125 0.46875 -0.875q0.1875 -0.859375 0.1875 -3.5q0 -1.546875 -0.171875 -2.125q-0.171875 -0.578125 -0.515625 -0.84375q-0.234375 -0.1875 -0.609375 -0.1875zm8.734375 -4.234375l0 8.125l1.96875 -1.9375q0.609375 -0.59375 0.765625 -0.84375q0.15625 -0.265625 0.15625 -0.515625q0 -0.25 -0.203125 -0.40625q-0.203125 -0.171875 -0.78125 -0.25l0 -0.328125l3.8125 0l0 0.328125q-0.546875 0.03125 -0.96875 0.265625q-0.40625 0.234375 -1.59375 1.40625l-0.921875 0.90625l2.0 2.9375q1.203125 1.78125 1.4375 2.0q0.3125 0.3125 0.78125 0.34375l0 0.328125l-4.390625 0l0 -0.328125q0.28125 0 0.40625 -0.109375q0.140625 -0.109375 0.140625 -0.234375q0 -0.21875 -0.375 -0.78125l-1.6875 -2.46875l-0.546875 0.546875l0 1.53125q0 0.96875 0.171875 1.21875q0.1875 0.234375 0.75 0.296875l0 0.328125l-4.390625 0l0 -0.328125q0.53125 -0.046875 0.765625 -0.34375q0.15625 -0.203125 0.15625 -1.171875l0 -8.65625q0 -0.96875 -0.1875 -1.203125q-0.171875 -0.234375 -0.734375 -0.3125l0 -0.34375l3.46875 0zm11.610092 11.109375q-1.5625 1.375 -2.796875 1.375q-0.734375 0 -1.21875 -0.484375q-0.46875 -0.484375 -0.46875 -1.203125q0 -0.96875 0.828125 -1.75q0.84375 -0.78125 3.65625 -2.078125l0 -0.84375q0 -0.96875 -0.109375 -1.21875q-0.09375 -0.25 -0.390625 -0.4375q-0.296875 -0.1875 -0.65625 -0.1875q-0.59375 0 -0.96875 0.265625q-0.25 0.15625 -0.25 0.375q0 0.203125 0.265625 0.484375q0.34375 0.390625 0.34375 0.75q0 0.453125 -0.34375 0.765625q-0.328125 0.3125 -0.859375 0.3125q-0.578125 0 -0.96875 -0.34375q-0.375 -0.359375 -0.375 -0.8125q0 -0.65625 0.515625 -1.25q0.515625 -0.609375 1.4375 -0.921875q0.9375 -0.3125 1.9375 -0.3125q1.21875 0 1.921875 0.515625q0.703125 0.5 0.921875 1.109375q0.125 0.375 0.125 1.75l0 3.3125q0 0.578125 0.046875 0.734375q0.046875 0.15625 0.125 0.234375q0.09375 0.0625 0.21875 0.0625q0.234375 0 0.484375 -0.34375l0.265625 0.21875q-0.453125 0.6875 -0.9375 1.0q-0.484375 0.296875 -1.109375 0.296875q-0.734375 0 -1.140625 -0.34375q-0.40625 -0.34375 -0.5 -1.03125zm0 -0.671875l0 -2.84375q-1.09375 0.640625 -1.640625 1.375q-0.359375 0.5 -0.359375 1.0q0 0.40625 0.3125 0.734375q0.21875 0.25 0.625 0.25q0.46875 0 1.0625 -0.515625zm8.53125 2.265625l-2.75 -6.3125q-0.609375 -1.421875 -0.90625 -1.75q-0.296875 -0.328125 -0.71875 -0.46875l0 -0.328125l4.53125 0l0 0.328125q-0.453125 0.03125 -0.640625 0.1875q-0.171875 0.140625 -0.171875 0.359375q0 0.359375 0.453125 1.375l1.453125 3.328125l1.0 -2.578125q0.53125 -1.375 0.53125 -1.90625q0 -0.34375 -0.21875 -0.53125q-0.21875 -0.203125 -0.796875 -0.234375l0 -0.328125l2.859375 0l0 0.328125q-0.421875 0.046875 -0.6875 0.328125q-0.265625 0.28125 -0.875 1.890625l-2.4375 6.3125q-0.921875 2.375 -1.359375 2.921875q-0.640625 0.765625 -1.578125 0.765625q-0.765625 0 -1.234375 -0.4375q-0.46875 -0.4375 -0.46875 -1.046875q0 -0.53125 0.328125 -0.875q0.328125 -0.34375 0.796875 -0.34375q0.453125 0 0.734375 0.28125q0.28125 0.296875 0.28125 0.90625q0.015625 0.359375 0.078125 0.453125q0.078125 0.09375 0.21875 0.09375q0.21875 0 0.46875 -0.25q0.359375 -0.390625 0.84375 -1.75l0.265625 -0.71875zm14.7890625 -1.59375q-1.5625 1.375 -2.796875 1.375q-0.734375 0 -1.21875 -0.484375q-0.46875 -0.484375 -0.46875 -1.203125q0 -0.96875 0.828125 -1.75q0.84375 -0.78125 3.65625 -2.078125l0 -0.84375q0 -0.96875 -0.109375 -1.21875q-0.09375 -0.25 -0.390625 -0.4375q-0.296875 -0.1875 -0.65625 -0.1875q-0.59375 0 -0.96875 0.265625q-0.25 0.15625 -0.25 0.375q0 0.203125 0.265625 0.484375q0.34375 0.390625 0.34375 0.75q0 0.453125 -0.34375 0.765625q-0.328125 0.3125 -0.859375 0.3125q-0.578125 0 -0.96875 -0.34375q-0.375 -0.359375 -0.375 -0.8125q0 -0.65625 0.515625 -1.25q0.515625 -0.609375 1.4375 -0.921875q0.9375 -0.3125 1.9375 -0.3125q1.21875 0 1.921875 0.515625q0.703125 0.5 0.921875 1.109375q0.125 0.375 0.125 1.75l0 3.3125q0 0.578125 0.046875 0.734375q0.046875 0.15625 0.125 0.234375q0.09375 0.0625 0.21875 0.0625q0.234375 0 0.484375 -0.34375l0.265625 0.21875q-0.453125 0.6875 -0.9375 1.0q-0.484375 0.296875 -1.109375 0.296875q-0.734375 0 -1.140625 -0.34375q-0.40625 -0.34375 -0.5 -1.03125zm0 -0.671875l0 -2.84375q-1.09375 0.640625 -1.640625 1.375q-0.359375 0.5 -0.359375 1.0q0 0.40625 0.3125 0.734375q0.21875 0.25 0.625 0.25q0.46875 0 1.0625 -0.515625zm7.96875 -10.4375l0 10.59375q0 0.90625 0.203125 1.15625q0.203125 0.25 0.8125 0.28125l0 0.328125l-4.59375 0l0 -0.328125q0.5625 -0.015625 0.84375 -0.328125q0.171875 -0.203125 0.171875 -1.109375l0 -8.8125q0 -0.90625 -0.203125 -1.15625q-0.203125 -0.25 -0.8125 -0.28125l0 -0.34375l3.578125 0zm5.183304 0l0 10.59375q0 0.90625 0.203125 1.15625q0.203125 0.25 0.8125 0.28125l0 0.328125l-4.59375 0l0 -0.328125q0.5625 -0.015625 0.84375 -0.328125q0.171875 -0.203125 0.171875 -1.109375l0 -8.8125q0 -0.90625 -0.203125 -1.15625q-0.203125 -0.25 -0.8125 -0.28125l0 -0.34375l3.578125 0zm9.894241 0.71875l0 3.125l2.015625 0l0 0.90625l-2.015625 0l0 5.25q0 0.734375 0.0625 0.953125q0.0625 0.21875 0.234375 0.359375q0.171875 0.125 0.328125 0.125q0.59375 0 1.109375 -0.90625l0.28125 0.203125q-0.734375 1.75 -2.390625 1.75q-0.8125 0 -1.375 -0.453125q-0.5625 -0.453125 -0.71875 -1.015625q-0.09375 -0.3125 -0.09375 -1.671875l0 -4.59375l-1.109375 0l0 -0.328125q1.15625 -0.8125 1.953125 -1.703125q0.8125 -0.890625 1.40625 -2.0l0.3125 0zm6.306427 -0.71875l0 4.9375q0.703125 -0.734375 1.28125 -1.03125q0.578125 -0.3125 1.21875 -0.3125q0.796875 0 1.359375 0.453125q0.578125 0.453125 0.765625 1.078125q0.1875 0.609375 0.1875 2.0625l0 3.328125q0 0.96875 0.171875 1.21875q0.1875 0.234375 0.75 0.296875l0 0.328125l-4.328125 0l0 -0.328125q0.453125 -0.0625 0.6875 -0.359375q0.171875 -0.234375 0.171875 -1.15625l0 -3.796875q0 -1.0625 -0.09375 -1.328125q-0.078125 -0.265625 -0.28125 -0.421875q-0.1875 -0.15625 -0.4375 -0.15625q-0.359375 0 -0.703125 0.25q-0.34375 0.25 -0.75 0.890625l0 4.5625q0 0.90625 0.140625 1.140625q0.171875 0.296875 0.703125 0.375l0 0.328125l-4.3125 0l0 -0.328125q0.53125 -0.046875 0.765625 -0.34375q0.15625 -0.203125 0.15625 -1.171875l0 -8.65625q0 -0.96875 -0.1875 -1.203125q-0.171875 -0.234375 -0.734375 -0.3125l0 -0.34375l3.46875 0zm14.110092 7.796875l-4.671875 0q0.078125 1.6875 0.90625 2.671875q0.625 0.765625 1.5 0.765625q0.546875 0 0.984375 -0.296875q0.453125 -0.3125 0.96875 -1.109375l0.3125 0.203125q-0.6875 1.40625 -1.53125 2.0q-0.84375 0.578125 -1.9375 0.578125q-1.890625 0 -2.875 -1.453125q-0.78125 -1.171875 -0.78125 -2.921875q0 -2.125 1.15625 -3.375q1.15625 -1.265625 2.703125 -1.265625q1.28125 0 2.234375 1.0625q0.953125 1.046875 1.03125 3.140625zm-2.234375 -0.609375q0 -1.46875 -0.171875 -2.015625q-0.15625 -0.546875 -0.484375 -0.828125q-0.203125 -0.171875 -0.515625 -0.171875q-0.46875 0 -0.78125 0.46875q-0.53125 0.8125 -0.53125 2.21875l0 0.328125l2.484375 0zm11.350845 -6.46875l0 3.125l2.015625 0l0 0.90625l-2.015625 0l0 5.25q0 0.734375 0.0625 0.953125q0.0625 0.21875 0.234375 0.359375q0.171875 0.125 0.328125 0.125q0.59375 0 1.109375 -0.90625l0.28125 0.203125q-0.734375 1.75 -2.390625 1.75q-0.8125 0 -1.375 -0.453125q-0.5625 -0.453125 -0.71875 -1.015625q-0.09375 -0.3125 -0.09375 -1.671875l0 -4.59375l-1.109375 0l0 -0.328125q1.15625 -0.8125 1.953125 -1.703125q0.8125 -0.890625 1.40625 -2.0l0.3125 0zm4.868927 -1.0q0.59375 0 1.0 0.421875q0.421875 0.40625 0.421875 0.984375q0 0.578125 -0.421875 1.0q-0.40625 0.40625 -1.0 0.40625q-0.578125 0 -0.984375 -0.40625q-0.40625 -0.421875 -0.40625 -1.0q0 -0.578125 0.40625 -0.984375q0.40625 -0.421875 0.984375 -0.421875zm1.28125 4.125l0 6.75q0 0.90625 0.203125 1.15625q0.21875 0.25 0.828125 0.28125l0 0.328125l-4.609375 0l0 -0.328125q0.578125 -0.015625 0.84375 -0.328125q0.1875 -0.203125 0.1875 -1.109375l0 -4.96875q0 -0.90625 -0.21875 -1.15625q-0.203125 -0.25 -0.8125 -0.296875l0 -0.328125l3.578125 0zm5.386429 0l0 1.125q0.703125 -0.765625 1.296875 -1.0625q0.609375 -0.3125 1.3125 -0.3125q0.828125 0 1.375 0.390625q0.5625 0.375 0.859375 1.15625q0.734375 -0.828125 1.390625 -1.1875q0.671875 -0.359375 1.40625 -0.359375q0.890625 0 1.40625 0.40625q0.53125 0.390625 0.734375 1.015625q0.203125 0.625 0.203125 2.0l0 3.484375q0 0.984375 0.171875 1.21875q0.1875 0.234375 0.75 0.3125l0 0.328125l-4.40625 0l0 -0.328125q0.515625 -0.046875 0.765625 -0.40625q0.171875 -0.234375 0.171875 -1.125l0 -3.65625q0 -1.140625 -0.09375 -1.453125q-0.09375 -0.3125 -0.296875 -0.453125q-0.1875 -0.15625 -0.453125 -0.15625q-0.390625 0 -0.796875 0.296875q-0.390625 0.28125 -0.8125 0.84375l0 4.578125q0 0.921875 0.15625 1.15625q0.21875 0.34375 0.8125 0.375l0 0.328125l-4.421875 0l0 -0.328125q0.359375 -0.015625 0.5625 -0.171875q0.203125 -0.171875 0.265625 -0.390625q0.078125 -0.21875 0.078125 -0.96875l0 -3.65625q0 -1.15625 -0.09375 -1.453125q-0.09375 -0.296875 -0.3125 -0.453125q-0.203125 -0.171875 -0.453125 -0.171875q-0.359375 0 -0.65625 0.203125q-0.4375 0.28125 -0.921875 0.953125l0 4.578125q0 0.90625 0.171875 1.203125q0.1875 0.28125 0.75 0.328125l0 0.328125l-4.390625 0l0 -0.328125q0.546875 -0.046875 0.765625 -0.34375q0.15625 -0.203125 0.15625 -1.1875l0 -4.8125q0 -0.96875 -0.1875 -1.203125q-0.171875 -0.234375 -0.734375 -0.3125l0 -0.328125l3.46875 0zm19.228302 3.953125l-4.671875 0q0.078125 1.6875 0.90625 2.671875q0.625 0.765625 1.5 0.765625q0.546875 0 0.984375 -0.296875q0.453125 -0.3125 0.96875 -1.109375l0.3125 0.203125q-0.6875 1.40625 -1.53125 2.0q-0.84375 0.578125 -1.9375 0.578125q-1.890625 0 -2.875 -1.453125q-0.78125 -1.171875 -0.78125 -2.921875q0 -2.125 1.15625 -3.375q1.15625 -1.265625 2.703125 -1.265625q1.28125 0 2.234375 1.0625q0.953125 1.046875 1.03125 3.140625zm-2.234375 -0.609375q0 -1.46875 -0.171875 -2.015625q-0.15625 -0.546875 -0.484375 -0.828125q-0.203125 -0.171875 -0.515625 -0.171875q-0.46875 0 -0.78125 0.46875q-0.53125 0.8125 -0.53125 2.21875l0 0.328125l2.484375 0zm3.5930328 8.4375l0 -0.390625q1.0625 -0.46875 1.53125 -1.1875q0.484375 -0.71875 0.484375 -1.484375q0 -0.15625 -0.0625 -0.234375q-0.0625 -0.0625 -0.125 -0.0625q-0.046875 0 -0.15625 0.0625q-0.265625 0.15625 -0.65625 0.15625q-0.546875 0 -0.953125 -0.421875q-0.390625 -0.421875 -0.390625 -0.984375q0 -0.609375 0.453125 -1.0625q0.46875 -0.453125 1.109375 -0.453125q0.78125 0 1.328125 0.609375q0.5625 0.609375 0.5625 1.65625q0 1.3125 -0.78125 2.3125q-0.78125 1.015625 -2.34375 1.484375zm15.234375 -3.609375l0 0.34375l-6.453125 0l0 -0.34375l0.40625 0q0.546875 0 0.875 -0.1875q0.234375 -0.125 0.359375 -0.4375q0.09375 -0.21875 0.09375 -1.140625l0 -8.125q0 -0.953125 -0.109375 -1.1875q-0.09375 -0.234375 -0.40625 -0.40625q-0.296875 -0.1875 -0.8125 -0.1875l-0.40625 0l0 -0.34375l6.453125 0l0 0.34375l-0.40625 0q-0.53125 0 -0.859375 0.1875q-0.25 0.125 -0.375 0.4375q-0.109375 0.21875 -0.109375 1.15625l0 8.125q0 0.9375 0.109375 1.1875q0.109375 0.234375 0.40625 0.40625q0.3125 0.171875 0.828125 0.171875l0.40625 0zm4.447769 -11.296875l0 3.125l2.015625 0l0 0.90625l-2.015625 0l0 5.25q0 0.734375 0.0625 0.953125q0.0625 0.21875 0.234375 0.359375q0.171875 0.125 0.328125 0.125q0.59375 0 1.109375 -0.90625l0.28125 0.203125q-0.734375 1.75 -2.390625 1.75q-0.8125 0 -1.375 -0.453125q-0.5625 -0.453125 -0.71875 -1.015625q-0.09375 -0.3125 -0.09375 -1.671875l0 -4.59375l-1.109375 0l0 -0.328125q1.15625 -0.8125 1.953125 -1.703125q0.8125 -0.890625 1.40625 -2.0l0.3125 0zm11.0173645 3.125l0 1.125q0.703125 -0.765625 1.296875 -1.0625q0.609375 -0.3125 1.3125 -0.3125q0.828125 0 1.375 0.390625q0.5625 0.375 0.859375 1.15625q0.734375 -0.828125 1.390625 -1.1875q0.671875 -0.359375 1.40625 -0.359375q0.890625 0 1.40625 0.40625q0.53125 0.390625 0.734375 1.015625q0.203125 0.625 0.203125 2.0l0 3.484375q0 0.984375 0.171875 1.21875q0.1875 0.234375 0.75 0.3125l0 0.328125l-4.40625 0l0 -0.328125q0.515625 -0.046875 0.765625 -0.40625q0.171875 -0.234375 0.171875 -1.125l0 -3.65625q0 -1.140625 -0.09375 -1.453125q-0.09375 -0.3125 -0.296875 -0.453125q-0.1875 -0.15625 -0.453125 -0.15625q-0.390625 0 -0.796875 0.296875q-0.390625 0.28125 -0.8125 0.84375l0 4.578125q0 0.921875 0.15625 1.15625q0.21875 0.34375 0.8125 0.375l0 0.328125l-4.421875 0l0 -0.328125q0.359375 -0.015625 0.5625 -0.171875q0.203125 -0.171875 0.265625 -0.390625q0.078125 -0.21875 0.078125 -0.96875l0 -3.65625q0 -1.15625 -0.09375 -1.453125q-0.09375 -0.296875 -0.3125 -0.453125q-0.203125 -0.171875 -0.453125 -0.171875q-0.359375 0 -0.65625 0.203125q-0.4375 0.28125 -0.921875 0.953125l0 4.578125q0 0.90625 0.171875 1.203125q0.1875 0.28125 0.75 0.328125l0 0.328125l-4.390625 0l0 -0.328125q0.546875 -0.046875 0.765625 -0.34375q0.15625 -0.203125 0.15625 -1.1875l0 -4.8125q0 -0.96875 -0.1875 -1.203125q-0.171875 -0.234375 -0.734375 -0.3125l0 -0.328125l3.46875 0zm19.228302 3.953125l-4.671875 0q0.078125 1.6875 0.90625 2.671875q0.625 0.765625 1.5 0.765625q0.546875 0 0.984375 -0.296875q0.453125 -0.3125 0.96875 -1.109375l0.3125 0.203125q-0.6875 1.40625 -1.53125 2.0q-0.84375 0.578125 -1.9375 0.578125q-1.890625 0 -2.875 -1.453125q-0.78125 -1.171875 -0.78125 -2.921875q0 -2.125 1.15625 -3.375q1.15625 -1.265625 2.703125 -1.265625q1.28125 0 2.234375 1.0625q0.953125 1.046875 1.03125 3.140625zm-2.234375 -0.609375q0 -1.46875 -0.171875 -2.015625q-0.15625 -0.546875 -0.484375 -0.828125q-0.203125 -0.171875 -0.515625 -0.171875q-0.46875 0 -0.78125 0.46875q-0.53125 0.8125 -0.53125 2.21875l0 0.328125l2.484375 0zm7.999283 3.921875q-1.5625 1.375 -2.796875 1.375q-0.734375 0 -1.21875 -0.484375q-0.46875 -0.484375 -0.46875 -1.203125q0 -0.96875 0.828125 -1.75q0.84375 -0.78125 3.65625 -2.078125l0 -0.84375q0 -0.96875 -0.109375 -1.21875q-0.09375 -0.25 -0.390625 -0.4375q-0.296875 -0.1875 -0.65625 -0.1875q-0.59375 0 -0.96875 0.265625q-0.25 0.15625 -0.25 0.375q0 0.203125 0.265625 0.484375q0.34375 0.390625 0.34375 0.75q0 0.453125 -0.34375 0.765625q-0.328125 0.3125 -0.859375 0.3125q-0.578125 0 -0.96875 -0.34375q-0.375 -0.359375 -0.375 -0.8125q0 -0.65625 0.515625 -1.25q0.515625 -0.609375 1.4375 -0.921875q0.9375 -0.3125 1.9375 -0.3125q1.21875 0 1.921875 0.515625q0.703125 0.5 0.921875 1.109375q0.125 0.375 0.125 1.75l0 3.3125q0 0.578125 0.046875 0.734375q0.046875 0.15625 0.125 0.234375q0.09375 0.0625 0.21875 0.0625q0.234375 0 0.484375 -0.34375l0.265625 0.21875q-0.453125 0.6875 -0.9375 1.0q-0.484375 0.296875 -1.109375 0.296875q-0.734375 0 -1.140625 -0.34375q-0.40625 -0.34375 -0.5 -1.03125zm0 -0.671875l0 -2.84375q-1.09375 0.640625 -1.640625 1.375q-0.359375 0.5 -0.359375 1.0q0 0.40625 0.3125 0.734375q0.21875 0.25 0.625 0.25q0.46875 0 1.0625 -0.515625zm8.109375 -6.59375l0 1.09375q0.65625 -0.703125 1.25 -1.015625q0.609375 -0.328125 1.296875 -0.328125q0.828125 0 1.375 0.453125q0.546875 0.453125 0.734375 1.140625q0.140625 0.515625 0.140625 2.0l0 3.3125q0 0.984375 0.171875 1.234375q0.1875 0.234375 0.75 0.296875l0 0.328125l-4.3125 0l0 -0.328125q0.484375 -0.0625 0.703125 -0.40625q0.140625 -0.21875 0.140625 -1.125l0 -3.78125q0 -1.0625 -0.09375 -1.328125q-0.078125 -0.265625 -0.28125 -0.421875q-0.1875 -0.15625 -0.421875 -0.15625q-0.78125 0 -1.453125 1.125l0 4.5625q0 0.953125 0.171875 1.21875q0.1875 0.25 0.671875 0.3125l0 0.328125l-4.3125 0l0 -0.328125q0.53125 -0.046875 0.765625 -0.34375q0.15625 -0.203125 0.15625 -1.1875l0 -4.8125q0 -0.96875 -0.1875 -1.203125q-0.171875 -0.234375 -0.734375 -0.3125l0 -0.328125l3.46875 0zm12.281967 -0.234375l0.140625 2.90625l-0.3125 0q-0.5625 -1.296875 -1.15625 -1.765625q-0.59375 -0.484375 -1.1875 -0.484375q-0.375 0 -0.640625 0.25q-0.265625 0.25 -0.265625 0.578125q0 0.25 0.1875 0.484375q0.28125 0.375 1.625 1.28125q1.34375 0.90625 1.765625 1.546875q0.421875 0.625 0.421875 1.40625q0 0.703125 -0.359375 1.390625q-0.34375 0.6875 -1.0 1.046875q-0.640625 0.359375 -1.421875 0.359375q-0.609375 0 -1.640625 -0.375q-0.265625 -0.109375 -0.375 -0.109375q-0.296875 0 -0.5 0.46875l-0.296875 0l-0.140625 -3.0625l0.3125 0q0.40625 1.203125 1.109375 1.8125q0.71875 0.59375 1.359375 0.59375q0.4375 0 0.71875 -0.265625q0.28125 -0.28125 0.28125 -0.65625q0 -0.4375 -0.28125 -0.75q-0.265625 -0.328125 -1.21875 -0.96875q-1.390625 -0.96875 -1.796875 -1.484375q-0.609375 -0.75 -0.609375 -1.640625q0 -0.984375 0.671875 -1.78125q0.6875 -0.796875 1.96875 -0.796875q0.703125 0 1.34375 0.328125q0.25 0.140625 0.40625 0.140625q0.15625 0 0.25 -0.0625q0.109375 -0.078125 0.328125 -0.390625l0.3125 0zm10.064957 0.234375l0 1.921875q0.859375 -1.3125 1.484375 -1.734375q0.640625 -0.4375 1.234375 -0.4375q0.515625 0 0.8125 0.3125q0.3125 0.3125 0.3125 0.890625q0 0.609375 -0.296875 0.953125q-0.296875 0.328125 -0.71875 0.328125q-0.484375 0 -0.84375 -0.3125q-0.34375 -0.3125 -0.40625 -0.34375q-0.09375 -0.0625 -0.21875 -0.0625q-0.265625 0 -0.5 0.203125q-0.375 0.3125 -0.5625 0.890625q-0.296875 0.875 -0.296875 1.9375l0 1.96875l0.015625 0.5q0 0.53125 0.0625 0.671875q0.109375 0.25 0.3125 0.359375q0.21875 0.109375 0.734375 0.140625l0 0.328125l-4.59375 0l0 -0.328125q0.546875 -0.046875 0.734375 -0.296875q0.203125 -0.265625 0.203125 -1.375l0 -4.71875q0 -0.71875 -0.0625 -0.921875q-0.09375 -0.25 -0.265625 -0.375q-0.171875 -0.125 -0.609375 -0.171875l0 -0.328125l3.46875 0zm11.630798 3.953125l-4.671875 0q0.078125 1.6875 0.90625 2.671875q0.625 0.765625 1.5 0.765625q0.546875 0 0.984375 -0.296875q0.453125 -0.3125 0.96875 -1.109375l0.3125 0.203125q-0.6875 1.40625 -1.53125 2.0q-0.84375 0.578125 -1.9375 0.578125q-1.890625 0 -2.875 -1.453125q-0.78125 -1.171875 -0.78125 -2.921875q0 -2.125 1.15625 -3.375q1.15625 -1.265625 2.703125 -1.265625q1.28125 0 2.234375 1.0625q0.953125 1.046875 1.03125 3.140625zm-2.234375 -0.609375q0 -1.46875 -0.171875 -2.015625q-0.15625 -0.546875 -0.484375 -0.828125q-0.203125 -0.171875 -0.515625 -0.171875q-0.46875 0 -0.78125 0.46875q-0.53125 0.8125 -0.53125 2.21875l0 0.328125l2.484375 0zm7.999283 3.921875q-1.5625 1.375 -2.796875 1.375q-0.734375 0 -1.21875 -0.484375q-0.46875 -0.484375 -0.46875 -1.203125q0 -0.96875 0.828125 -1.75q0.84375 -0.78125 3.65625 -2.078125l0 -0.84375q0 -0.96875 -0.109375 -1.21875q-0.09375 -0.25 -0.390625 -0.4375q-0.296875 -0.1875 -0.65625 -0.1875q-0.59375 0 -0.96875 0.265625q-0.25 0.15625 -0.25 0.375q0 0.203125 0.265625 0.484375q0.34375 0.390625 0.34375 0.75q0 0.453125 -0.34375 0.765625q-0.328125 0.3125 -0.859375 0.3125q-0.578125 0 -0.96875 -0.34375q-0.375 -0.359375 -0.375 -0.8125q0 -0.65625 0.515625 -1.25q0.515625 -0.609375 1.4375 -0.921875q0.9375 -0.3125 1.9375 -0.3125q1.21875 0 1.921875 0.515625q0.703125 0.5 0.921875 1.109375q0.125 0.375 0.125 1.75l0 3.3125q0 0.578125 0.046875 0.734375q0.046875 0.15625 0.125 0.234375q0.09375 0.0625 0.21875 0.0625q0.234375 0 0.484375 -0.34375l0.265625 0.21875q-0.453125 0.6875 -0.9375 1.0q-0.484375 0.296875 -1.109375 0.296875q-0.734375 0 -1.140625 -0.34375q-0.40625 -0.34375 -0.5 -1.03125zm0 -0.671875l0 -2.84375q-1.09375 0.640625 -1.640625 1.375q-0.359375 0.5 -0.359375 1.0q0 0.40625 0.3125 0.734375q0.21875 0.25 0.625 0.25q0.46875 0 1.0625 -0.515625zm7.96875 -10.4375l0 10.59375q0 0.90625 0.203125 1.15625q0.203125 0.25 0.8125 0.28125l0 0.328125l-4.59375 0l0 -0.328125q0.5625 -0.015625 0.84375 -0.328125q0.171875 -0.203125 0.171875 -1.109375l0 -8.8125q0 -0.90625 -0.203125 -1.15625q-0.203125 -0.25 -0.8125 -0.28125l0 -0.34375l3.578125 0zm3.8864136 -0.28125q0.59375 0 1.0 0.421875q0.421875 0.40625 0.421875 0.984375q0 0.578125 -0.421875 1.0q-0.40625 0.40625 -1.0 0.40625q-0.578125 0 -0.984375 -0.40625q-0.40625 -0.421875 -0.40625 -1.0q0 -0.578125 0.40625 -0.984375q0.40625 -0.421875 0.984375 -0.421875zm1.28125 4.125l0 6.75q0 0.90625 0.203125 1.15625q0.21875 0.25 0.828125 0.28125l0 0.328125l-4.6093597 0l0 -0.328125q0.578125 -0.015625 0.84373474 -0.328125q0.1875 -0.203125 0.1875 -1.109375l0 -4.96875q0 -0.90625 -0.21873474 -1.15625q-0.203125 -0.25 -0.8125 -0.296875l0 -0.328125l3.5781097 0zm8.839569 8.515625l-7.421875 0l0 -0.203125l4.6875 -7.765625l-1.375 0q-0.875 0 -1.265625 0.171875q-0.375 0.15625 -0.609375 0.515625q-0.234375 0.34375 -0.5 1.234375l-0.3125 0l0 -2.46875l7.171875 0l0 0.25l-4.65625 7.6875l0.59375 0q1.75 0 2.515625 -0.5q0.78125 -0.5 1.171875 -1.84375l0.25 0l-0.25 2.921875zm3.343048 -12.640625q0.59375 0 1.0 0.421875q0.421875 0.40625 0.421875 0.984375q0 0.578125 -0.421875 1.0q-0.40625 0.40625 -1.0 0.40625q-0.578125 0 -0.984375 -0.40625q-0.40625 -0.421875 -0.40625 -1.0q0 -0.578125 0.40625 -0.984375q0.40625 -0.421875 0.984375 -0.421875zm1.28125 4.125l0 6.75q0 0.90625 0.203125 1.15625q0.21875 0.25 0.828125 0.28125l0 0.328125l-4.609375 0l0 -0.328125q0.578125 -0.015625 0.84375 -0.328125q0.1875 -0.203125 0.1875 -1.109375l0 -4.96875q0 -0.90625 -0.21875 -1.15625q-0.203125 -0.25 -0.8125 -0.296875l0 -0.328125l3.578125 0zm5.3395386 0l0 1.09375q0.65625 -0.703125 1.25 -1.015625q0.609375 -0.328125 1.296875 -0.328125q0.828125 0 1.375 0.453125q0.546875 0.453125 0.734375 1.140625q0.140625 0.515625 0.140625 2.0l0 3.3125q0 0.984375 0.171875 1.234375q0.1875 0.234375 0.75 0.296875l0 0.328125l-4.3125 0l0 -0.328125q0.484375 -0.0625 0.703125 -0.40625q0.140625 -0.21875 0.140625 -1.125l0 -3.78125q0 -1.0625 -0.09375 -1.328125q-0.078125 -0.265625 -0.28125 -0.421875q-0.1875 -0.15625 -0.421875 -0.15625q-0.78125 0 -1.453125 1.125l0 4.5625q0 0.953125 0.171875 1.21875q0.1875 0.25 0.671875 0.3125l0 0.328125l-4.3125 0l0 -0.328125q0.53125 -0.046875 0.765625 -0.34375q0.15625 -0.203125 0.15625 -1.1875l0 -4.8125q0 -0.96875 -0.1875 -1.203125q-0.171875 -0.234375 -0.734375 -0.3125l0 -0.328125l3.46875 0zm12.360107 0.09375l2.875 0l0 1.0l-1.640625 0q0.453125 0.453125 0.625 0.8125q0.21875 0.5 0.21875 1.03125q0 0.90625 -0.515625 1.578125q-0.5 0.671875 -1.375 1.0625q-0.859375 0.375 -1.53125 0.375q-0.0625 0 -1.09375 -0.046875q-0.40625 0 -0.6875 0.265625q-0.28125 0.265625 -0.28125 0.640625q0 0.328125 0.25 0.546875q0.25 0.203125 0.8125 0.203125l1.578125 -0.015625q1.90625 0 2.640625 0.40625q1.015625 0.59375 1.015625 1.796875q0 0.78125 -0.46875 1.40625q-0.46875 0.640625 -1.25 0.9375q-1.171875 0.453125 -2.703125 0.453125q-1.140625 0 -2.09375 -0.234375q-0.953125 -0.21875 -1.359375 -0.625q-0.40625 -0.390625 -0.40625 -0.828125q0 -0.40625 0.3125 -0.75q0.3125 -0.328125 1.171875 -0.5625q-1.1875 -0.578125 -1.1875 -1.609375q0 -0.640625 0.484375 -1.21875q0.484375 -0.59375 1.53125 -1.03125q-1.21875 -0.453125 -1.765625 -1.171875q-0.546875 -0.734375 -0.546875 -1.6875q0 -1.25 1.015625 -2.15625q1.015625 -0.921875 2.625 -0.921875q0.84375 0 1.75 0.34375zm-1.578125 0.21875q-0.53125 0 -0.890625 0.53125q-0.359375 0.53125 -0.359375 2.203125q0 1.359375 0.359375 1.875q0.359375 0.5 0.84375 0.5q0.546875 0 0.90625 -0.5q0.375 -0.5 0.375 -1.953125q0 -1.625 -0.40625 -2.21875q-0.296875 -0.4375 -0.828125 -0.4375zm-0.53125 9.453125q-0.9375 0 -1.234375 0.15625q-0.515625 0.28125 -0.515625 0.765625q0 0.46875 0.53125 0.84375q0.546875 0.375 2.03125 0.375q1.265625 0 1.984375 -0.34375q0.71875 -0.328125 0.71875 -0.9375q0 -0.21875 -0.125 -0.375q-0.25 -0.28125 -0.75 -0.390625q-0.5 -0.09375 -2.640625 -0.09375zm14.5390625 -0.90625l-2.75 -6.3125q-0.609375 -1.421875 -0.90625 -1.75q-0.296875 -0.328125 -0.71875 -0.46875l0 -0.328125l4.53125 0l0 0.328125q-0.453125 0.03125 -0.640625 0.1875q-0.171875 0.140625 -0.171875 0.359375q0 0.359375 0.453125 1.375l1.453125 3.328125l1.0 -2.578125q0.53125 -1.375 0.53125 -1.90625q0 -0.34375 -0.21875 -0.53125q-0.21875 -0.203125 -0.796875 -0.234375l0 -0.328125l2.859375 0l0 0.328125q-0.421875 0.046875 -0.6875 0.328125q-0.265625 0.28125 -0.875 1.890625l-2.4375 6.3125q-0.921875 2.375 -1.359375 2.921875q-0.640625 0.765625 -1.578125 0.765625q-0.765625 0 -1.234375 -0.4375q-0.46875 -0.4375 -0.46875 -1.046875q0 -0.53125 0.328125 -0.875q0.328125 -0.34375 0.796875 -0.34375q0.453125 0 0.734375 0.28125q0.28125 0.296875 0.28125 0.90625q0.015625 0.359375 0.078125 0.453125q0.078125 0.09375 0.21875 0.09375q0.21875 0 0.46875 -0.25q0.359375 -0.390625 0.84375 -1.75l0.265625 -0.71875zm9.4375 -9.109375q1.109375 0 2.0625 0.578125q0.96875 0.5625 1.453125 1.625q0.5 1.046875 0.5 2.3125q0 1.8125 -0.90625 3.03125q-1.125 1.46875 -3.078125 1.46875q-1.921875 0 -2.96875 -1.34375q-1.03125 -1.34375 -1.03125 -3.125q0 -1.828125 1.0625 -3.1875q1.0625 -1.359375 2.90625 -1.359375zm0.046875 0.640625q-0.46875 0 -0.8125 0.359375q-0.328125 0.34375 -0.4375 1.375q-0.09375 1.03125 -0.09375 2.875q0 0.96875 0.125 1.828125q0.109375 0.640625 0.4375 0.984375q0.328125 0.328125 0.734375 0.328125q0.421875 0 0.6875 -0.21875q0.359375 -0.3125 0.46875 -0.875q0.1875 -0.859375 0.1875 -3.5q0 -1.546875 -0.171875 -2.125q-0.171875 -0.578125 -0.515625 -0.84375q-0.234375 -0.1875 -0.609375 -0.1875zm13.5 -0.390625l0 6.671875q0 0.96875 0.171875 1.21875q0.1875 0.234375 0.75 0.296875l0 0.328125l-3.484375 0l0 -1.140625q-0.609375 0.734375 -1.21875 1.0625q-0.609375 0.328125 -1.359375 0.328125q-0.71875 0 -1.28125 -0.4375q-0.5625 -0.4375 -0.75 -1.03125q-0.1875 -0.59375 -0.1875 -2.0625l0 -3.390625q0 -0.96875 -0.1875 -1.203125q-0.171875 -0.234375 -0.734375 -0.3125l0 -0.328125l3.46875 0l0 5.8125q0 0.921875 0.078125 1.1875q0.09375 0.265625 0.28125 0.40625q0.1875 0.125 0.4375 0.125q0.328125 0 0.578125 -0.171875q0.375 -0.234375 0.875 -0.953125l0 -4.5625q0 -0.96875 -0.171875 -1.203125q-0.171875 -0.234375 -0.734375 -0.3125l0 -0.328125l3.46875 0z" fill-rule="nonzero"/><path fill="#000000" d="m18.078125 71.96999l-2.34375 -6.25l-2.28125 6.25l-0.46875 0l-2.265625 -6.171875q-0.515625 -1.40625 -0.875 -1.84375q-0.21875 -0.28125 -0.6875 -0.421875l0 -0.328125l4.296875 0l0 0.328125q-0.4375 0 -0.609375 0.140625q-0.15625 0.125 -0.15625 0.28125q0 0.15625 0.296875 0.9375l1.25 3.328125l1.203125 -3.328125l-0.09375 -0.21875q-0.28125 -0.6875 -0.484375 -0.875q-0.203125 -0.1875 -0.625 -0.265625l0 -0.328125l4.359375 0l0 0.328125q-0.515625 0.03125 -0.65625 0.15625q-0.125 0.109375 -0.125 0.3125q0 0.203125 0.265625 0.890625l1.203125 3.328125l1.09375 -3.0625q0.234375 -0.65625 0.234375 -0.890625q0 -0.359375 -0.171875 -0.515625q-0.171875 -0.171875 -0.671875 -0.21875l0 -0.328125l2.515625 0l0 0.328125q-0.421875 0.0625 -0.671875 0.3125q-0.234375 0.234375 -0.625 1.359375l-2.390625 6.765625l-0.515625 0zm7.066696 -12.890625q0.59375 0 1.0 0.421875q0.421875 0.40625 0.421875 0.984375q0 0.578125 -0.421875 1.0q-0.40625 0.40625 -1.0 0.40625q-0.578125 0 -0.984375 -0.40625q-0.40625 -0.421875 -0.40625 -1.0q0 -0.578125 0.40625 -0.984375q0.40625 -0.421875 0.984375 -0.421875zm1.28125 4.125l0 6.75q0 0.90625 0.203125 1.15625q0.21875 0.25 0.828125 0.28125l0 0.328125l-4.609375 0l0 -0.328125q0.578125 -0.015625 0.84375 -0.328125q0.1875 -0.203125 0.1875 -1.109375l0 -4.96875q0 -0.90625 -0.21875 -1.15625q-0.203125 -0.25 -0.8125 -0.296875l0 -0.328125l3.578125 0zm5.198929 -3.84375l0 10.59375q0 0.90625 0.203125 1.15625q0.203125 0.25 0.8125 0.28125l0 0.328125l-4.59375 0l0 -0.328125q0.5625 -0.015625 0.84375 -0.328125q0.171875 -0.203125 0.171875 -1.109375l0 -8.8125q0 -0.90625 -0.203125 -1.15625q-0.203125 -0.25 -0.8125 -0.28125l0 -0.34375l3.578125 0zm5.183304 0l0 10.59375q0 0.90625 0.203125 1.15625q0.203125 0.25 0.8125 0.28125l0 0.328125l-4.59375 0l0 -0.328125q0.5625 -0.015625 0.84375 -0.328125q0.171875 -0.203125 0.171875 -1.109375l0 -8.8125q0 -0.90625 -0.203125 -1.15625q-0.203125 -0.25 -0.8125 -0.28125l0 -0.34375l3.578125 0zm9.800491 0l0 4.703125q1.078125 -1.109375 2.359375 -1.109375q0.875 0 1.640625 0.515625q0.78125 0.5 1.21875 1.453125q0.4375 0.953125 0.4375 2.1875q0 1.390625 -0.5625 2.53125q-0.546875 1.140625 -1.484375 1.734375q-0.921875 0.59375 -2.125 0.59375q-0.6875 0 -1.234375 -0.21875q-0.53125 -0.21875 -1.046875 -0.703125l-1.40625 0.921875l-0.3125 0l0 -10.828125q0 -0.75 -0.0625 -0.921875q-0.09375 -0.25 -0.296875 -0.375q-0.1875 -0.125 -0.65625 -0.140625l0 -0.34375l3.53125 0zm0 5.515625l0 3.78125q0 1.15625 0.0625 1.484375q0.09375 0.53125 0.4375 0.875q0.34375 0.328125 0.875 0.328125q0.46875 0 0.796875 -0.265625q0.34375 -0.265625 0.5625 -1.046875q0.21875 -0.796875 0.21875 -2.828125q0 -1.96875 -0.484375 -2.6875q-0.359375 -0.53125 -0.96875 -0.53125q-0.78125 0 -1.5 0.890625zm14.297592 2.28125l-4.671875 0q0.078125 1.6875 0.90625 2.671875q0.625 0.765625 1.5 0.765625q0.546875 0 0.984375 -0.296875q0.453125 -0.3125 0.96875 -1.109375l0.3125 0.203125q-0.6875 1.40625 -1.53125 2.0q-0.84375 0.578125 -1.9375 0.578125q-1.890625 0 -2.875 -1.453125q-0.78125 -1.171875 -0.78125 -2.921875q0 -2.125 1.15625 -3.375q1.15625 -1.265625 2.703125 -1.265625q1.28125 0 2.234375 1.0625q0.953125 1.046875 1.03125 3.140625zm-2.234375 -0.609375q0 -1.46875 -0.171875 -2.015625q-0.15625 -0.546875 -0.484375 -0.828125q-0.203125 -0.171875 -0.515625 -0.171875q-0.46875 0 -0.78125 0.46875q-0.53125 0.8125 -0.53125 2.21875l0 0.328125l2.484375 0zm11.975845 -3.59375q1.109375 0 2.0625 0.578125q0.96875 0.5625 1.453125 1.625q0.5 1.046875 0.5 2.3125q0 1.8125 -0.90625 3.03125q-1.125 1.46875 -3.078125 1.46875q-1.921875 0 -2.96875 -1.34375q-1.03125 -1.34375 -1.03125 -3.125q0 -1.828125 1.0625 -3.1875q1.0625 -1.359375 2.90625 -1.359375zm0.046875 0.640625q-0.46875 0 -0.8125 0.359375q-0.328125 0.34375 -0.4375 1.375q-0.09375 1.03125 -0.09375 2.875q0 0.96875 0.125 1.828125q0.109375 0.640625 0.4375 0.984375q0.328125 0.328125 0.734375 0.328125q0.421875 0 0.6875 -0.21875q0.359375 -0.3125 0.46875 -0.875q0.1875 -0.859375 0.1875 -3.5q0 -1.546875 -0.171875 -2.125q-0.171875 -0.578125 -0.515625 -0.84375q-0.234375 -0.1875 -0.609375 -0.1875zm8.734375 -4.234375l0 8.125l1.96875 -1.9375q0.609375 -0.59375 0.765625 -0.84375q0.15625 -0.265625 0.15625 -0.515625q0 -0.25 -0.203125 -0.40625q-0.203125 -0.171875 -0.78125 -0.25l0 -0.328125l3.8125 0l0 0.328125q-0.546875 0.03125 -0.96875 0.265625q-0.40625 0.234375 -1.59375 1.40625l-0.921875 0.90625l2.0 2.9375q1.203125 1.78125 1.4375 2.0q0.3125 0.3125 0.78125 0.34375l0 0.328125l-4.390625 0l0 -0.328125q0.28125 0 0.40625 -0.109375q0.140625 -0.109375 0.140625 -0.234375q0 -0.21875 -0.375 -0.78125l-1.6875 -2.46875l-0.546875 0.546875l0 1.53125q0 0.96875 0.171875 1.21875q0.1875 0.234375 0.75 0.296875l0 0.328125l-4.390625 0l0 -0.328125q0.53125 -0.046875 0.765625 -0.34375q0.15625 -0.203125 0.15625 -1.171875l0 -8.65625q0 -0.96875 -0.1875 -1.203125q-0.171875 -0.234375 -0.734375 -0.3125l0 -0.34375l3.46875 0zm11.610092 11.109375q-1.5625 1.375 -2.796875 1.375q-0.734375 0 -1.21875 -0.484375q-0.46875 -0.484375 -0.46875 -1.203125q0 -0.96875 0.828125 -1.75q0.84375 -0.78125 3.65625 -2.078125l0 -0.84375q0 -0.96875 -0.109375 -1.21875q-0.09375 -0.25 -0.390625 -0.4375q-0.296875 -0.1875 -0.65625 -0.1875q-0.59375 0 -0.96875 0.265625q-0.25 0.15625 -0.25 0.375q0 0.203125 0.265625 0.484375q0.34375 0.390625 0.34375 0.75q0 0.453125 -0.34375 0.765625q-0.328125 0.3125 -0.859375 0.3125q-0.578125 0 -0.96875 -0.34375q-0.375 -0.359375 -0.375 -0.8125q0 -0.65625 0.515625 -1.25q0.515625 -0.609375 1.4375 -0.921875q0.9375 -0.3125 1.9375 -0.3125q1.21875 0 1.921875 0.515625q0.703125 0.5 0.921875 1.109375q0.125 0.375 0.125 1.75l0 3.3125q0 0.578125 0.046875 0.734375q0.046875 0.15625 0.125 0.234375q0.09375 0.0625 0.21875 0.0625q0.234375 0 0.484375 -0.34375l0.265625 0.21875q-0.453125 0.6875 -0.9375 1.0q-0.484375 0.296875 -1.109375 0.296875q-0.734375 0 -1.140625 -0.34375q-0.40625 -0.34375 -0.5 -1.03125zm0 -0.671875l0 -2.84375q-1.09375 0.640625 -1.640625 1.375q-0.359375 0.5 -0.359375 1.0q0 0.40625 0.3125 0.734375q0.21875 0.25 0.625 0.25q0.46875 0 1.0625 -0.515625zm8.53125 2.265625l-2.75 -6.3125q-0.609375 -1.421875 -0.90625 -1.75q-0.296875 -0.328125 -0.71875 -0.46875l0 -0.328125l4.53125 0l0 0.328125q-0.453125 0.03125 -0.640625 0.1875q-0.171875 0.140625 -0.171875 0.359375q0 0.359375 0.453125 1.375l1.453125 3.328125l1.0 -2.578125q0.53125 -1.375 0.53125 -1.90625q0 -0.34375 -0.21875 -0.53125q-0.21875 -0.203125 -0.796875 -0.234375l0 -0.328125l2.859375 0l0 0.328125q-0.421875 0.046875 -0.6875 0.328125q-0.265625 0.28125 -0.875 1.890625l-2.4375 6.3125q-0.921875 2.375 -1.359375 2.921875q-0.640625 0.765625 -1.578125 0.765625q-0.765625 0 -1.234375 -0.4375q-0.46875 -0.4375 -0.46875 -1.046875q0 -0.53125 0.328125 -0.875q0.328125 -0.34375 0.796875 -0.34375q0.453125 0 0.734375 0.28125q0.28125 0.296875 0.28125 0.90625q0.015625 0.359375 0.078125 0.453125q0.078125 0.09375 0.21875 0.09375q0.21875 0 0.46875 -0.25q0.359375 -0.390625 0.84375 -1.75l0.265625 -0.71875zm18.539062 -0.09375l-2.34375 -6.25l-2.28125 6.25l-0.46875 0l-2.265625 -6.171875q-0.515625 -1.40625 -0.875 -1.84375q-0.21875 -0.28125 -0.6875 -0.421875l0 -0.328125l4.296875 0l0 0.328125q-0.4375 0 -0.609375 0.140625q-0.15625 0.125 -0.15625 0.28125q0 0.15625 0.296875 0.9375l1.25 3.328125l1.203125 -3.328125l-0.09375 -0.21875q-0.28125 -0.6875 -0.484375 -0.875q-0.203125 -0.1875 -0.625 -0.265625l0 -0.328125l4.359375 0l0 0.328125q-0.515625 0.03125 -0.65625 0.15625q-0.125 0.109375 -0.125 0.3125q0 0.203125 0.265625 0.890625l1.203125 3.328125l1.09375 -3.0625q0.234375 -0.65625 0.234375 -0.890625q0 -0.359375 -0.171875 -0.515625q-0.171875 -0.171875 -0.671875 -0.21875l0 -0.328125l2.515625 0l0 0.328125q-0.421875 0.0625 -0.671875 0.3125q-0.234375 0.234375 -0.625 1.359375l-2.390625 6.765625l-0.515625 0zm7.066696 -12.890625q0.59375 0 1.0 0.421875q0.421875 0.40625 0.421875 0.984375q0 0.578125 -0.421875 1.0q-0.40625 0.40625 -1.0 0.40625q-0.578125 0 -0.984375 -0.40625q-0.40625 -0.421875 -0.40625 -1.0q0 -0.578125 0.40625 -0.984375q0.40625 -0.421875 0.984375 -0.421875zm1.28125 4.125l0 6.75q0 0.90625 0.203125 1.15625q0.21875 0.25 0.828125 0.28125l0 0.328125l-4.609375 0l0 -0.328125q0.578125 -0.015625 0.84375 -0.328125q0.1875 -0.203125 0.1875 -1.109375l0 -4.96875q0 -0.90625 -0.21875 -1.15625q-0.203125 -0.25 -0.8125 -0.296875l0 -0.328125l3.578125 0zm5.245804 -3.125l0 3.125l2.015625 0l0 0.90625l-2.015625 0l0 5.25q0 0.734375 0.0625 0.953125q0.0625 0.21875 0.234375 0.359375q0.171875 0.125 0.328125 0.125q0.59375 0 1.109375 -0.90625l0.28125 0.203125q-0.734375 1.75 -2.390625 1.75q-0.8125 0 -1.375 -0.453125q-0.5625 -0.453125 -0.71875 -1.015625q-0.09375 -0.3125 -0.09375 -1.671875l0 -4.59375l-1.109375 0l0 -0.328125q1.15625 -0.8125 1.953125 -1.703125q0.8125 -0.890625 1.40625 -2.0l0.3125 0zm6.306427 -0.71875l0 4.9375q0.703125 -0.734375 1.28125 -1.03125q0.578125 -0.3125 1.21875 -0.3125q0.796875 0 1.359375 0.453125q0.578125 0.453125 0.765625 1.078125q0.1875 0.609375 0.1875 2.0625l0 3.328125q0 0.96875 0.171875 1.21875q0.1875 0.234375 0.75 0.296875l0 0.328125l-4.328125 0l0 -0.328125q0.453125 -0.0625 0.6875 -0.359375q0.171875 -0.234375 0.171875 -1.15625l0 -3.796875q0 -1.0625 -0.09375 -1.328125q-0.078125 -0.265625 -0.28125 -0.421875q-0.1875 -0.15625 -0.4375 -0.15625q-0.359375 0 -0.703125 0.25q-0.34375 0.25 -0.75 0.890625l0 4.5625q0 0.90625 0.140625 1.140625q0.171875 0.296875 0.703125 0.375l0 0.328125l-4.3125 0l0 -0.328125q0.53125 -0.046875 0.765625 -0.34375q0.15625 -0.203125 0.15625 -1.171875l0 -8.65625q0 -0.96875 -0.1875 -1.203125q-0.171875 -0.234375 -0.734375 -0.3125l0 -0.34375l3.46875 0zm18.774155 7.796875l-4.671875 0q0.078125 1.6875 0.90625 2.671875q0.625 0.765625 1.5 0.765625q0.546875 0 0.984375 -0.296875q0.453125 -0.3125 0.96875 -1.109375l0.3125 0.203125q-0.6875 1.40625 -1.53125 2.0q-0.84375 0.578125 -1.9375 0.578125q-1.890625 0 -2.875 -1.453125q-0.78125 -1.171875 -0.78125 -2.921875q0 -2.125 1.15625 -3.375q1.15625 -1.265625 2.703125 -1.265625q1.28125 0 2.234375 1.0625q0.953125 1.046875 1.03125 3.140625zm-2.234375 -0.609375q0 -1.46875 -0.171875 -2.015625q-0.15625 -0.546875 -0.484375 -0.828125q-0.203125 -0.171875 -0.515625 -0.171875q-0.46875 0 -0.78125 0.46875q-0.53125 0.8125 -0.53125 2.21875l0 0.328125l2.484375 0zm7.139908 5.421875l-2.859375 -6.59375q-0.53125 -1.203125 -0.8125 -1.515625q-0.21875 -0.234375 -0.625 -0.328125l0 -0.328125l4.53125 0l0 0.328125q-0.4375 0 -0.578125 0.15625q-0.21875 0.203125 -0.21875 0.484375q0 0.328125 0.390625 1.265625l1.40625 3.1875l1.125 -2.75q0.484375 -1.1875 0.484375 -1.6875q0 -0.28125 -0.21875 -0.453125q-0.203125 -0.171875 -0.71875 -0.203125l0 -0.328125l2.796875 0l0 0.328125q-0.40625 0.0625 -0.671875 0.3125q-0.25 0.234375 -0.75 1.4375l-2.84375 6.6875l-0.4375 0zm12.703125 -4.8125l-4.671875 0q0.078125 1.6875 0.90625 2.671875q0.625 0.765625 1.5 0.765625q0.546875 0 0.984375 -0.296875q0.453125 -0.3125 0.96875 -1.109375l0.3125 0.203125q-0.6875 1.40625 -1.53125 2.0q-0.84375 0.578125 -1.9375 0.578125q-1.890625 0 -2.875 -1.453125q-0.78125 -1.171875 -0.78125 -2.921875q0 -2.125 1.15625 -3.375q1.15625 -1.265625 2.703125 -1.265625q1.28125 0 2.234375 1.0625q0.953125 1.046875 1.03125 3.140625zm-2.234375 -0.609375q0 -1.46875 -0.171875 -2.015625q-0.15625 -0.546875 -0.484375 -0.828125q-0.203125 -0.171875 -0.515625 -0.171875q-0.46875 0 -0.78125 0.46875q-0.53125 0.8125 -0.53125 2.21875l0 0.328125l2.484375 0zm6.827408 -3.34375l0 1.921875q0.859375 -1.3125 1.484375 -1.734375q0.640625 -0.4375 1.234375 -0.4375q0.515625 0 0.8125 0.3125q0.3125 0.3125 0.3125 0.890625q0 0.609375 -0.296875 0.953125q-0.296875 0.328125 -0.71875 0.328125q-0.484375 0 -0.84375 -0.3125q-0.34375 -0.3125 -0.40625 -0.34375q-0.09375 -0.0625 -0.21875 -0.0625q-0.265625 0 -0.5 0.203125q-0.375 0.3125 -0.5625 0.890625q-0.296875 0.875 -0.296875 1.9375l0 1.96875l0.015625 0.5q0 0.53125 0.0625 0.671875q0.109375 0.25 0.3125 0.359375q0.21875 0.109375 0.734375 0.140625l0 0.328125l-4.59375 0l0 -0.328125q0.546875 -0.046875 0.734375 -0.296875q0.203125 -0.265625 0.203125 -1.375l0 -4.71875q0 -0.71875 -0.0625 -0.921875q-0.09375 -0.25 -0.265625 -0.375q-0.171875 -0.125 -0.609375 -0.171875l0 -0.328125l3.46875 0zm8.655533 8.859375l-2.75 -6.3125q-0.609375 -1.421875 -0.90625 -1.75q-0.296875 -0.328125 -0.71875 -0.46875l0 -0.328125l4.53125 0l0 0.328125q-0.453125 0.03125 -0.640625 0.1875q-0.171875 0.140625 -0.171875 0.359375q0 0.359375 0.453125 1.375l1.453125 3.328125l1.0 -2.578125q0.53125 -1.375 0.53125 -1.90625q0 -0.34375 -0.21875 -0.53125q-0.21875 -0.203125 -0.796875 -0.234375l0 -0.328125l2.859375 0l0 0.328125q-0.421875 0.046875 -0.6875 0.328125q-0.265625 0.28125 -0.875 1.890625l-2.4375 6.3125q-0.921875 2.375 -1.359375 2.921875q-0.640625 0.765625 -1.578125 0.765625q-0.765625 0 -1.234375 -0.4375q-0.46875 -0.4375 -0.46875 -1.046875q0 -0.53125 0.328125 -0.875q0.328125 -0.34375 0.796875 -0.34375q0.453125 0 0.734375 0.28125q0.28125 0.296875 0.28125 0.90625q0.015625 0.359375 0.078125 0.453125q0.078125 0.09375 0.21875 0.09375q0.21875 0 0.46875 -0.25q0.359375 -0.390625 0.84375 -1.75l0.265625 -0.71875zm15.4765625 -9.09375l0.140625 2.90625l-0.3125 0q-0.5625 -1.296875 -1.15625 -1.765625q-0.59375 -0.484375 -1.1875 -0.484375q-0.375 0 -0.640625 0.25q-0.265625 0.25 -0.265625 0.578125q0 0.25 0.1875 0.484375q0.28125 0.375 1.625 1.28125q1.34375 0.90625 1.765625 1.546875q0.421875 0.625 0.421875 1.40625q0 0.703125 -0.359375 1.390625q-0.34375 0.6875 -1.0 1.046875q-0.640625 0.359375 -1.421875 0.359375q-0.609375 0 -1.640625 -0.375q-0.265625 -0.109375 -0.375 -0.109375q-0.296875 0 -0.5 0.46875l-0.296875 0l-0.140625 -3.0625l0.3125 0q0.40625 1.203125 1.109375 1.8125q0.71875 0.59375 1.359375 0.59375q0.4375 0 0.71875 -0.265625q0.28125 -0.28125 0.28125 -0.65625q0 -0.4375 -0.28125 -0.75q-0.265625 -0.328125 -1.21875 -0.96875q-1.390625 -0.96875 -1.796875 -1.484375q-0.609375 -0.75 -0.609375 -1.640625q0 -0.984375 0.671875 -1.78125q0.6875 -0.796875 1.96875 -0.796875q0.703125 0 1.34375 0.328125q0.25 0.140625 0.40625 0.140625q0.15625 0 0.25 -0.0625q0.109375 -0.078125 0.328125 -0.390625l0.3125 0zm3.9165192 -3.890625q0.59375 0 1.0 0.421875q0.421875 0.40625 0.421875 0.984375q0 0.578125 -0.421875 1.0q-0.40625 0.40625 -1.0 0.40625q-0.578125 0 -0.984375 -0.40625q-0.40625 -0.421875 -0.40625 -1.0q0 -0.578125 0.40625 -0.984375q0.40625 -0.421875 0.984375 -0.421875zm1.28125 4.125l0 6.75q0 0.90625 0.203125 1.15625q0.21875 0.25 0.828125 0.28125l0 0.328125l-4.609375 0l0 -0.328125q0.578125 -0.015625 0.84375 -0.328125q0.1875 -0.203125 0.1875 -1.109375l0 -4.96875q0 -0.90625 -0.21875 -1.15625q-0.203125 -0.25 -0.8125 -0.296875l0 -0.328125l3.578125 0zm5.245804 -3.125l0 3.125l2.015625 0l0 0.90625l-2.015625 0l0 5.25q0 0.734375 0.0625 0.953125q0.0625 0.21875 0.234375 0.359375q0.171875 0.125 0.328125 0.125q0.59375 0 1.109375 -0.90625l0.28125 0.203125q-0.734375 1.75 -2.390625 1.75q-0.8125 0 -1.375 -0.453125q-0.5625 -0.453125 -0.71875 -1.015625q-0.09375 -0.3125 -0.09375 -1.671875l0 -4.59375l-1.109375 0l0 -0.328125q1.15625 -0.8125 1.953125 -1.703125q0.8125 -0.890625 1.40625 -2.0l0.3125 0zm11.056427 3.125l0 6.671875q0 0.96875 0.171875 1.21875q0.1875 0.234375 0.75 0.296875l0 0.328125l-3.484375 0l0 -1.140625q-0.609375 0.734375 -1.21875 1.0625q-0.609375 0.328125 -1.359375 0.328125q-0.71875 0 -1.28125 -0.4375q-0.5625 -0.4375 -0.75 -1.03125q-0.1875 -0.59375 -0.1875 -2.0625l0 -3.390625q0 -0.96875 -0.1875 -1.203125q-0.171875 -0.234375 -0.734375 -0.3125l0 -0.328125l3.46875 0l0 5.8125q0 0.921875 0.078125 1.1875q0.09375 0.265625 0.28125 0.40625q0.1875 0.125 0.4375 0.125q0.328125 0 0.578125 -0.171875q0.375 -0.234375 0.875 -0.953125l0 -4.5625q0 -0.96875 -0.171875 -1.203125q-0.171875 -0.234375 -0.734375 -0.3125l0 -0.328125l3.46875 0zm6.844467 7.265625q-1.5625 1.375 -2.796875 1.375q-0.734375 0 -1.21875 -0.484375q-0.46875 -0.484375 -0.46875 -1.203125q0 -0.96875 0.828125 -1.75q0.84375 -0.78125 3.65625 -2.078125l0 -0.84375q0 -0.96875 -0.109375 -1.21875q-0.09375 -0.25 -0.390625 -0.4375q-0.296875 -0.1875 -0.65625 -0.1875q-0.59375 0 -0.96875 0.265625q-0.25 0.15625 -0.25 0.375q0 0.203125 0.265625 0.484375q0.34375 0.390625 0.34375 0.75q0 0.453125 -0.34375 0.765625q-0.328125 0.3125 -0.859375 0.3125q-0.578125 0 -0.96875 -0.34375q-0.375 -0.359375 -0.375 -0.8125q0 -0.65625 0.515625 -1.25q0.515625 -0.609375 1.4375 -0.921875q0.9375 -0.3125 1.9375 -0.3125q1.21875 0 1.921875 0.515625q0.703125 0.5 0.921875 1.109375q0.125 0.375 0.125 1.75l0 3.3125q0 0.578125 0.046875 0.734375q0.046875 0.15625 0.125 0.234375q0.09375 0.0625 0.21875 0.0625q0.234375 0 0.484375 -0.34375l0.265625 0.21875q-0.453125 0.6875 -0.9375 1.0q-0.484375 0.296875 -1.109375 0.296875q-0.734375 0 -1.140625 -0.34375q-0.40625 -0.34375 -0.5 -1.03125zm0 -0.671875l0 -2.84375q-1.09375 0.640625 -1.640625 1.375q-0.359375 0.5 -0.359375 1.0q0 0.40625 0.3125 0.734375q0.21875 0.25 0.625 0.25q0.46875 0 1.0625 -0.515625zm8.015625 -9.71875l0 3.125l2.015625 0l0 0.90625l-2.015625 0l0 5.25q0 0.734375 0.0625 0.953125q0.0625 0.21875 0.234375 0.359375q0.171875 0.125 0.328125 0.125q0.59375 0 1.109375 -0.90625l0.28125 0.203125q-0.734375 1.75 -2.390625 1.75q-0.8125 0 -1.375 -0.453125q-0.5625 -0.453125 -0.71875 -1.015625q-0.09375 -0.3125 -0.09375 -1.671875l0 -4.59375l-1.109375 0l0 -0.328125q1.15625 -0.8125 1.953125 -1.703125q0.8125 -0.890625 1.40625 -2.0l0.3125 0zm4.868927 -1.0q0.59375 0 1.0 0.421875q0.421875 0.40625 0.421875 0.984375q0 0.578125 -0.421875 1.0q-0.40625 0.40625 -1.0 0.40625q-0.578125 0 -0.984375 -0.40625q-0.40625 -0.421875 -0.40625 -1.0q0 -0.578125 0.40625 -0.984375q0.40625 -0.421875 0.984375 -0.421875zm1.28125 4.125l0 6.75q0 0.90625 0.203125 1.15625q0.21875 0.25 0.828125 0.28125l0 0.328125l-4.609375 0l0 -0.328125q0.578125 -0.015625 0.84375 -0.328125q0.1875 -0.203125 0.1875 -1.109375l0 -4.96875q0 -0.90625 -0.21875 -1.15625q-0.203125 -0.25 -0.8125 -0.296875l0 -0.328125l3.578125 0zm5.870804 -0.25q1.109375 0 2.0625 0.578125q0.96875 0.5625 1.453125 1.625q0.5 1.046875 0.5 2.3125q0 1.8125 -0.90625 3.03125q-1.125 1.46875 -3.078125 1.46875q-1.921875 0 -2.96875 -1.34375q-1.03125 -1.34375 -1.03125 -3.125q0 -1.828125 1.0625 -3.1875q1.0625 -1.359375 2.90625 -1.359375zm0.046875 0.640625q-0.46875 0 -0.8125 0.359375q-0.328125 0.34375 -0.4375 1.375q-0.09375 1.03125 -0.09375 2.875q0 0.96875 0.125 1.828125q0.109375 0.640625 0.4375 0.984375q0.328125 0.328125 0.734375 0.328125q0.421875 0 0.6875 -0.21875q0.359375 -0.3125 0.46875 -0.875q0.1875 -0.859375 0.1875 -3.5q0 -1.546875 -0.171875 -2.125q-0.171875 -0.578125 -0.515625 -0.84375q-0.234375 -0.1875 -0.609375 -0.1875zm8.750015 -0.390625l0 1.09375q0.65625 -0.703125 1.25 -1.015625q0.609375 -0.328125 1.296875 -0.328125q0.828125 0 1.375 0.453125q0.546875 0.453125 0.734375 1.140625q0.140625 0.515625 0.140625 2.0l0 3.3125q0 0.984375 0.171875 1.234375q0.1875 0.234375 0.75 0.296875l0 0.328125l-4.3125 0l0 -0.328125q0.484375 -0.0625 0.703125 -0.40625q0.140625 -0.21875 0.140625 -1.125l0 -3.78125q0 -1.0625 -0.09375 -1.328125q-0.078125 -0.265625 -0.28125 -0.421875q-0.1875 -0.15625 -0.421875 -0.15625q-0.78125 0 -1.453125 1.125l0 4.5625q0 0.953125 0.171875 1.21875q0.1875 0.25 0.671875 0.3125l0 0.328125l-4.3125 0l0 -0.328125q0.53125 -0.046875 0.765625 -0.34375q0.15625 -0.203125 0.15625 -1.1875l0 -4.8125q0 -0.96875 -0.1875 -1.203125q-0.171875 -0.234375 -0.734375 -0.3125l0 -0.328125l3.46875 0zm12.281952 -0.234375l0.140625 2.90625l-0.3125 0q-0.5625 -1.296875 -1.15625 -1.765625q-0.59375 -0.484375 -1.1875 -0.484375q-0.375 0 -0.640625 0.25q-0.265625 0.25 -0.265625 0.578125q0 0.25 0.1875 0.484375q0.28125 0.375 1.625 1.28125q1.34375 0.90625 1.765625 1.546875q0.421875 0.625 0.421875 1.40625q0 0.703125 -0.359375 1.390625q-0.34375 0.6875 -1.0 1.046875q-0.640625 0.359375 -1.421875 0.359375q-0.609375 0 -1.640625 -0.375q-0.265625 -0.109375 -0.375 -0.109375q-0.296875 0 -0.5 0.46875l-0.296875 0l-0.140625 -3.0625l0.3125 0q0.40625 1.203125 1.109375 1.8125q0.71875 0.59375 1.359375 0.59375q0.4375 0 0.71875 -0.265625q0.28125 -0.28125 0.28125 -0.65625q0 -0.4375 -0.28125 -0.75q-0.265625 -0.328125 -1.21875 -0.96875q-1.390625 -0.96875 -1.796875 -1.484375q-0.609375 -0.75 -0.609375 -1.640625q0 -0.984375 0.671875 -1.78125q0.6875 -0.796875 1.96875 -0.796875q0.703125 0 1.34375 0.328125q0.25 0.140625 0.40625 0.140625q0.15625 0 0.25 -0.0625q0.109375 -0.078125 0.328125 -0.390625l0.3125 0zm3.5727844 5.9375q0.640625 0 1.078125 0.453125q0.453125 0.453125 0.453125 1.078125q0 0.625 -0.453125 1.078125q-0.453125 0.4375 -1.078125 0.4375q-0.625 0 -1.078125 -0.4375q-0.4375 -0.453125 -0.4375 -1.078125q0 -0.625 0.4375 -1.078125q0.453125 -0.453125 1.078125 -0.453125z" fill-rule="nonzero"/></g></svg>